<mxfile host="65bd71144e">
    <diagram id="T9ut3KYUCwBtASTkdDkL" name="Page-1">
        <mxGraphModel dx="527" dy="390" grid="1" gridSize="10" guides="1" tooltips="1" connect="1" arrows="1" fold="1" page="1" pageScale="1" pageWidth="827" pageHeight="1169" math="0" shadow="0">
            <root>
                <mxCell id="0"/>
                <mxCell id="1" parent="0"/>
                <mxCell id="2" value="" style="shape=image;verticalLabelPosition=bottom;labelBackgroundColor=default;verticalAlign=top;aspect=fixed;imageAspect=0;image=data:image/png,iVBORw0KGgoAAAANSUhEUgAAAggAAAELCAYAAAC8gH5QAAAAAXNSR0IArs4c6QAAIABJREFUeF7svWeUXdeVJvbde1+OVfUqR6CQc84ASZAAKFIiSKoVWtOSutWr1cur3R67PW63/dc/7LVsj8czntUz7jAdpNaSRYkSMwmSIEGCCETOQFWhgMr55XyT196vCigAVfVCXRQKwD1aRQGoc849Z59z7/7Ot8MRDh48qGOeFkEQQD+PsqREPy6W7cNQYDU0yTHjUAToCIjD2FTxMVa0tsPl0fGIh/8oRWc+25TAUykBRdYxfDWG0Ekb9Kz4yL9hUy2CruvQNA30//OpzIdv/lzIwyi5P2z9KJgAYebtYAKEuXhdzGeYEnhyJGAChNLX0gQIxcnOBAiP+AhuAoTiNuy8rK2DT0o6BPoDNFWfdHJ6tAzVvJTX0zYogZg+AaJIjCVA/5nNZ8cECKVvIBMgFCc7EyDM5k0tTtZT1jYBggFCfERdEHuqazpUWUc2pSGbAXSVMIIIjalVARDERzQ687HzQgJ6zgwoMEhQIUqA1S7A5hQgWUQGDbRNiikmQChGWvfWNQFCcbIzAYIJEIrbMWZtloCm6ZDTGpIxDdmUBYrqhqq6oOsW6GIOFOSsr0V+/U35PmESyAFF8h+CrkGADElKwiolYHOqcHlFWB3jQKHAmZsAoUBBTVHNBAjFyc4ECCZAKG7HPOW1iRjQFB3xcBaJsARZD0ATfNBhBUDAwGBAcI+P17iymeYRXHXiP494X+fdJnfm9eCc7vkVTWg+z2WG9bmzHrRed9aF4SVAQEGLwm4Nwe1T4fKLkKxSXrFRBRMgFCSmKSuZAKE42ZkA4RF/fEwTQ3Eb9lHWJnMCmRJiIQHJlBuqHoAu2MeBgYEj0wlqCLAIAhwWG1w2B+ySDbqmwWq1Tu21Tj4QOiBrKlJyCik5i7QqQ4POP/OhiLoAkeYkWeGyOuGwWqGrOmy2SXMa9+eg8Wa1LJLZDP/QvFSB/DzmwVzG10cSRTglG1xWB+xWK1RVhd1qu7s+OqBqKkPGjCojkU3zuii6Bg0qz0XU05DEMbjccXjKRdgcFJUw82qZAKH03WwChOJkZwKEfG9jcfIsunZS9OOSGeZYtNzmugGBg3RCRSwoIZWpgCr4AVgMZwxEHXBLdjRWVKO+rBr1FZWoKQvAbXdB0zVYLcRUTKVBWLNCVhVEk3H0BUcwGB5Fb2gYw7EQUmoWusHkRqFrQMCAQEG9vxL1ZZWoK69CbXklvE4PBGiwSAQQJnw1cg6erFTlDILxKPqCwxgKB9EdHMRYMoasrhhO1BQ0Fx2QIMBlsaGpohZ1ZZWoL69CdVkFPHYXVE2BlQACM0k5OodC/SDoSGUyGImG0B8cwXB4DLfHBhCTU5B1AhAyLEIEdkcIvgoddtfMIOFxAAgTIY5GhdsVtD4FVDIBQgFCmlTlqQYIJIeHLYB8y0EA4XL5fjMPQj5BPcLf08k8m1QRGRWRylRCFXzj4MDAQemAXbSgubwGG1qWYUVTKytSOpHSSTWnQElxzqzl+Yyt61A0FYl0Cl3D/bjS04Ezt65hNBWDJszhCVwnCCWiwV+Jdc1LsKp5MZqr6uGw2iCKIrMJ/A5OMyeaC/l6KJqCSCKOmwPduNTdjvPd7axc9bn0/9R12AUrWivrsa5lKVY0tqKW1sdi5bnkviPTrw+tiaprUFQFo9EQbvTexoXuNlwf6EJKy0AXNEiIwOUYg7dCg901fY4WAghDlAfhBOVBePS5XKZ6C+YbMDDwTZ33XRkt+4epI4VXXnllDr9I837tHhhgSirDlYoDJkCYx0unZHWER3QkEsQclBsPDjQdLsmGDS1L8ezKLVhY0wiHzc7AYDYlBxQ0RJMxXO+9hU8unsCt4ACfWh82m0DPtuoillQ34YXVW7GyeTG8ThdEkc7gxRfqj9iRYCyMMzev4si1MxiMhaAIZM9/yEXX4RJt2NC8DM+s2oRFtc13gFspTyYmKCsr6BsbxPEbF3Dy5mUEM3EGCRY9DLd7GL5KAVabOCVTchcgWKFlSpFmKaMurs3DVCrFjeTB2kYr0NmO52lubwKEPKtvAoT5/XrQCTYeVBAN+5HVqwF2RjSw6IBTsGLrolV4cd1ONFbWwiIV5qxW6CjoJE4n17be2/jdqc/QNtID8k54aIWOBKqG5dXNeH37Piypa4bdRtT77JUZfdyTmTTOdFzGe+eOoi82Cm323U4vCmIOYMG21lV4aeMeNASqYZHItDT7QjR8KBHFZ5dP4fCVrxHOJiAICiwYgb88Ak+FlAuDvK+YAGF2sjcBwuzkZ2RrEyCYAMHI/TTnfWXTKkZ7BWS0ZuiC0/Dn2wQJ6xoW45XNz2FBTQMsFCj/kIqsqrh46zreOHEIvZFRaLMjKKYdpagBte4K/Pi5V7CiceG434SxkyKQ8Pmlk3jv3FcIy4mHxohIGrC6rhXf2/Uim0dmy+rcLwVSVqF4FG+e+ARH288jS7kSkILTNoiyqizsTukBFsEECLPbSyZAmJ38jGxtAoRHABDIXp2LvCZ7NJ0UyXs8pw00yuTzCIsokALU2eGOyp2x6uRrP701amI+hQ594rQ6G693yogYGVUQj1RCFioNj1YQdB31nkp8Z9sL2NC6EjarwezEFMKKpRL4+PxxfHz5BKJkxzf69K0DZVYXvr31eexasQFO28z3ixS6nlMp1uHIGN488SlOdl5hxWp0ofWpc1XgX+15CatblsLGDqLGF1XTcHu4Dz8/8i7ax3o5woFYhLKK0JQsggkQZrcGJkCYnfyMbG0ChDkGCJJgQcBVB78jgGgmhEh6FPRv1Z4mWEQL+qI32emLgt/I65peFrvFyQAip0ynUtKkbgUGFxklzW3vLzmFnAMlU/cBWCUbqt3N/NyRZC93EXDWwWXzYiTRj4yS5GfkwMN4miFBgF1ywirakVaSkLVMHokKsIhWuG0+7iKeDY/3lRt/MYBBzmgY69eRkhdAF4xXdHZI2LNkPb69Yz/8bu+0BDw7uKkkFx2SJE15ip2oQw6VFos0rfMt0dpdI/341VeHcGmw03CnRasuYX3TYvzRc6+i3EuRHjMXmpei5ObGO0gUYbUQtZ6f3iCfhMtd7fjnI+9gKBU2PF+CAxY8v3wzXtv+PDxOd76p8O9VVYOi5N4rmhCtl9WS3ySRljM4euUsfnXiEOJaBiLicDuHUFatwmq/VxYmQChoKaatZAKE2cnPyNYmQJhjgECKcUfzN9HkW4xYJoxQeoSVf62nBVbBip5oB7JaColsDF3h64hnI9hU/zy8Nj+y9GESJK6vaDIrWlLWxEJYBCui2RDO9H+GjJK4MyuqY5XsrMCtogOKLkNWU8iq6RwAYUUvcChbjbsZq2t2IJIO4tLQMdgkGzbXP8/gpX3sPBLZKIKpIYwlB7g9FavkwAL/ctR6F6AjeAGD8a5xVmRqwRIjUeGsxZLAOgi6gI7gRXhsfmYqQqlhxLJjDJDyFfqIpCIqQqMeZPR6UICboUUHquxe/OT517C6efG0dm1FVRGNxtHW3oVkMo1FrY1obKiFJN1VGjTWcDiGto4uZGUZ69cug8ftmhYkpDJpvH/2S3x46RgSSta4kEEd8Foc+NHul7F92fq8vhSkSG939eN62y2eG/l7+HxurF65GA311axc85VwIoZ/PvwWTvVc5zwJhhUNqHJ48ecv/QCLapvyAhZag0xWxq3bvei42c3zoZwVLS31WLtqMf95pkLth8Jj+OsPf4mboQHoggy70I9AbQoOz71yMAHC7FbZBAizk5+RrU2AMIcAwSLasKhiLTbUPwMJErz2CiSyEaaR7RYX4ukgn+JHEn3ojXSiL3YTqq7gtRV/yoDg2vBp1HiaUe6sxo2xc1ge2MgMxED8dk7hChLevfFfkMiGmVFwWD1YULaCf+e2+liZZ9UUknIMHWMX0Bm6goyahChY0OBtxfq6Z1DhrMFYahjBZD9ovEsrNzAgCaYG4bVVoDvShjP9hxFOj8AiWOCxV2B19XY0+5fg675P0Rm6eMdsQsDlfkaAAE6LfznW1e2BVbQy4LGKNgYp4cwozg0cwUCs846JY7rlYfPCsIJorHY8csFYLp6c75cGGvHn3/wBAt6yKYdBp+vOrj58fuQUOm72sCJ/4dlteO6ZzZxcaKKkUmkcO3kBn35+kv/pz/7ke2hoqJkWIFC/1/o68c+fv4Pe+JhhAIFyOLSU1eCPn3+dlWq+Eo8ncPT4ebR3dKGszIfRsTD6B4axYlkrXntlLyrK8zMQWUXGievn8fOvPkBczRg2F0kTsL5hEf7kwHfhd3nyTQWyrODCpRv4+PAJZhFqawIs/5bmeuzZuQF2O+3BmQsBt7dPfY6PLp9AWs/AiiGUV0bg9osQJjkrmgAhnyRn/r0JEGYnPyNbmwAh30fBsDBHAW6bl5VwlasJI/FuLAqsYZNAJBPEWGIAsWwYiwNrmM6nE3s0E4TT4sbBlX+KlBzH+b4vsKRyHer9C3Gi+yPsaH4RQ/Fe3Bg5i5XVW7nuu+3/iEQmArfVj3V1u7G0cj0SmTBnjPPYyzEQu4VyZxXKnTU4P/Alzg9+wUzC8qrN2FL/AkTJwoAgo6RgESQ4LR4E08MYiHWjuWwpboycwYXBLyBrMlrLVmFVzTY0+BbDJtlxoudDtAfPwyG5GVwQEIlnQ0griTsKn8wpSwLrsanhefjtASSUKL66/T589gqsrN7MAOR03yfcdqZCACHYLyOWWghdcBn5TrDpwwoRe5dtxPd2vwSXfWrzBSn+Dz8+hrPnrjFjEI0n8OzuzfjG/p13FA4p+/ab3fjt24dx/cYtuFwO/I9/8RO0NNfNeOolx7h//+7P0RbsNYyat0LCrkVr8O3t+1Dpo3DQmQuZOxKJFGRZhsVi4Xm89+GXnFzopz/5Nhrqa/J1waaJvrFh/O+/+3uMZROGAQQKazy48Rm8uH4XhzTmO/2PhSL4f//u14gnkvjGvp1Ys3oJMyBk7nE5HQXlW6F5n791A3/z6a8RVVKQEILPPwx/pQhRugtQTYCQd1vkXa/Z9WC2NkoCJkCYI4BAJ3o6xa+t3Y3WilWwW9zw2yuQUhMIp0ZhkxxwWt2sGKnucLwPp/s/Ybv+qyt+CofkRDQdRJW7AW6bHwOx26jzLuD6w8k+bpuRk3in7R/4/5cG1mNj/fMIJgdwYfArbKrfy2aE8wNfIK2ksG/R92AR7fiw/WcYTHTBbfFhZ9NLWFq1EWk5gaFEN5s5CCw0+5exz0BX5DqO3n4HodQQKy3yT2j2L0ZrxToEXLUIpYfZXwKaCkVXmbEYjvcy4zCS7IOuq5BEK1ZVb8eOpm8gq2ZwsucQOoLn4XdUYlvji/DZy/Fh+8+ZsZipqIqGYL+KeGYhdBgcvaDrHNr4+zsO4JnVW2C3TK2ASGHEEynE4gkcP34ep89ew47t6+4BCKNjIXxw6Cucu3Ad4UiUwwkLAQjkrPjX7/8SF4ZuGgYQaE4vrduFb2zYBY+jOFCVTmdw4uuLOHzkJFqaG/D6wecLYhBoDYOxCP6XX/1nDGeixgAEHfBZHPjJs69i85JVkPJElpCp5NyFG/iHn/0OlYEyfPvVfQhU+BkY+HweWK35fRAm9iIlg/o/3v4nRNUU+yF4nP2oqBdMgGCURiKPJL5p1SzzQQImQJgjgECPISq9yb8MC8tWotJdx3Q++Q0EU8Oo8y5k57bPbr6Bem8rOzGeGfgcsUwIB1f8lBmEc31HsKxyA+r9rTje/QF2Nr+MoXg3ro+cucMgvNf+jyCbxeaGF9i8cLTrbVbcryz7Y4RSI/iy622klTh2NR9Eo38xzvZ/hhtjZ/k0v752DxaUr2RzRjIbQ0+kjan/tbU7GcB0BC/j4uBRBg/kg0B+A2X2ACv2ZZUbEU2PoSN0CTdGz0HRMlga2IBlVZvRNnoWZ/s/ZyaBfCIIJO1oepnH9e71/8Jz9DkC2NX8TdT7WvHWtb/FSKJnxpVRshpCQzoS6QXQMLODIikQq5RzDGQnNfZxEPgET8zKAx8kttXb8YfPHMSWxavzOrGR8jz0yTEcO3kRO7bdBQjpdBbHT57HZ1+cQlVVBQYHRxAKx/CX/90f5WUQ4ukk/u7Qb3C65/qU4Y60V8iplbIdkpf9nTkJ5Ox5NwplshCdog2vb3wOL6zbVlT0AjEI167fwqHDx5k9+Ma+XVi5YhGfvgspxIb8b7/5O/Qlxh6IyiAwzHOh9YHAGSbph/5McyMfm9zV3JPKOED4swPfx+qWxXcigKYbSyaTxeEjp/DO+5/D4bBhYUsjstksm03WrFqCtauXwOGgOzvyl1tDffi37/wTgtk4BCThcvShsl7nq6Eniskg5JfjTDVMgDA7+RnZ2gQIcwoQ7OwEuK52NzsdEotA18Jk1DREiEjKUXzU/jM0+1cwQCD6n5wUiUGg/PE9kXY0+FpR5qhEx9hFLKvayOxDb7SdnRzpY/pu2z9wVMGWhn18mie63msrx+6WV9AZvIxjPe9zlMOOpm9iYfkKdka8PnIWjb5WrKzelgMIapafS0BBVjMMBsih0uuogKJl0T56HrfDV9g0sbB8NQMVp9WDU32f4Orw10jIUf7AN/gWYUvDC1zvs9tvMoAggLCmZhc7P/ZE2/H5rTfZD6LK1YBdzd9CuasGb1//O4wm+mYGCLKG0GB+gEChby2BOiyuaeKLlSKpGDqGemCz2FDh8aF9sBuh5H3mDB3wSHb8eM83sW3pupIAAilP8kt443eH2GSxcf0KnD1/DX39w/izP/0+Whc0srlhuox2BBD+5qM3cKav7QGlSoBnQaAWS2qbx+cUR+dIH/dV5vRgKBLEUCz0gB8HAYRXNzyLfeu2T2s2uV/oBA5oHocOn0AymWITCjlZ0tgLLaF4BP/rr/8W/cnQA3Mh88Diqka0VNbBJlkwFg/j5kgfX4DltNrRFxpBKBW7F8SNA4T/at93sW7hsrzmAQJwH35yDB8c+pLBxKoVi1BVWYHLV9uZffjhD76JhQsa73EsnW5uBBD+z7f/ESE5QW8snM4+VNaZAKHQvVBIPRMgFCKlualjAoS5BAiSHWuqd2JF9ZZcqJ/Vx6dwcuQj23xWSeHy8DHUeFsQz4T51E3ggQACKZn+2C1Uuxs5LLAn3IH19c8glB5CV+gGmvyLeSbvtv0jO/9trN8Lj60M14ZPYWXVVnjtZTjR+yFuha7wc19c+iOUO6pxuPMN9ERusB/B4oq1fOpXoaI30s5RBVklgxpvEzsT0t8JOISSQxhO9qLeuxAbG/ai2tWE0WQ/vup+l1kHClek+sSWbGl8gU0eR27/ln0qcv++BC3+FeiPdeJ2+Cp//AmYbG04wOzGp7d+jWh6dMaVoSudxwYUxNkHYWoTAynMgMePrQtXoaGiGpIgospbBvKsJxNJLJ3Aocsn0B++71k64BAseG3Tsziwfjcctplt3FMxCDQncoj7/MtTbFaorCzH7a4+RKMJbFi/nB39du9YD5dr6rHThU7/8b1f4PJI1wO0PCnPl9bsQE1ZJWdgrHD7kMhS6B0QSyfx2bXT6BobfAAgOAQr9q/cgm9uegY+tzfvF4b8JyiK4a13P0MsnsQLz21jcOB2O/Mq5cmd090GZGIYzebkPrlUe8qxb/VWuB0uBgh+pweRFDFNIq/LFzfOYTgWfAAgeCQHfrj7Zexcvi5v5kRiEI4cPY1f/eYQysq8+O63D2BhSwPefOsTtLV345WXn8GuHRvucSydSji0pu39Xfh37/0MEYWce2PwuAdRUWOaGPJupiIqmAChCGE95KomQJhDgEA2/xVVW7C+bg/b2skBkE7kCTnGTn6ymmUfAYfVjWByELfD1xhAkImBwMNQvIejGOgE3x+7iW8u/QmDhsvDJ7C+djcDAnJSVNUs1tc9y0wFKWVyWOwKX8PJ3kMMLsgHgMwG1N/hzl8jpcQZRJCjYrWbvNs1DMd70DZ2nn0dfI5KLK/cwOO7NnKGn03f+RVV21DraYbTSpcjabg4eAzDiR5mDIjFoOiGFdWbmaWg6ATypyBmgcIuab5ZNct5E/yOKmYUFpavZJPHxaFjkMfDKKdbHnJSDA3IiCWaoYnkxf5gFAM9i2zttb4AmxKS2TTK3T40BWr4JHlruJdv7cso8gOPETUB21pW4CcvvA6Pc3p7PX3MJgDC8ZOXsH3bWry4fydsVguGR0IIh6OcIyESjePjT4+jf3AUv//dF7F4UQvqa6umpOmpz8HQCP7TR2+gI9T/wNTskhVLapoh0yVJyRjPqSVQz1catw114/ZIP9Jy9oEIEosuYkPTEvz+7pf4oql8hcI3f/PWp7hw8TqefWYLntm1EV6Pm00zEuVyyNcB7QpNY6X6Hz74BUJy8oG5eO1OLKhsQDyT4tshA54ytFTWM3vVNtiN3uAwsup960MXZwkS9q/aite272O2YabCUSE3OvGf/vYNuD1O/OA7L6GlqQ6/evMjBggUkbF969q8AIHA2PEbF/Hzo+8hpiRhQRD+8lF4A+I9KZdNE0MBG2OGKiZAmJ38jGxtAoQ5BAjktNfoW4IFZctQ6arnhEkUITCS6MWCsuV8un7r2t+wf8KywCb2LRhK9OBby38Cp8XLp+tgcphpfPqA7l/yg5wiHz3HPghkUiATQyobQ51nATY37EPAXYv+SCcrb/IjWF69iU/+fbFOBgyR9Aj7RmxtPICVVZvhsHig6llEs2Eks3GWDjlH9kZvcmhjOD3MToykHUjR+2wVDDYot0FSjjM7oegKHBYnfLZy9Mdu42TfRxiN97E5ZaLQpUAEkCh0clXVFiwoX4H2sQs4P3iEzRn5EibxHQyjCsLhSigzZFEkFoFs2WTGJhMM/d0qWVi5ka2b7PdTFUHV0egJ4H947Seo9JdPeWIm5UehfyMjIZw4dQGXr97kHAE7t69HTXUFyvxebkcfvJHREH7+y/dw63Yf/vv/5kdY0FI/bRSDrCg403EFvzz2EYbTkQeUKgEfOmFz8qXxhD90+iYzVUaVpw0RpTQE1a4y/PSF38PKptaZGRpK2NQ9wI59g0MjeGHvDtRUVbC/gMfrxuJFTfB43HlBQjqbwYfnjuKts0eQoSyh96EKyilKfZKfAd2mSMDNZrGAcnERAJrI6Hn/YGkui8rr8N9+64fThqFObhOOxPCPP3sLt7r6sXHdctTXV+HLr87x+uQiMqrzsiKxVBI//+IdHL95iVk2qzCA8pooXF7LPcSICRBmp6JMgDA7+RnZ2gQIcwgQSEET7U5JknJOirWceGgo0YtGb2vODNDzISpctaj3LcKp3kMYTvTi1eU/5TBAYgPI5EAneVKgTskFlVMz6/A7qxBLB/H2jb/nPAhkW7VJTjZdkMImdmFj3XNwWFzoj95Ee/AC90e5ChwWN5ZWbmSnxSbfEjZvHO95Hyk5iQpXDVrKlvHzybfgytDX7PNA+RSoUETF2prdKHdUMZtBwKDMWclOc8RQkN8EJT+iE/zdInB2xjVVO9FasZrZgu5oG66PnOZQz1z66ZkL6cV0QkVo0Ia03mz8DY7jKYm/t30/di5fD9sUoXTEHBw9fg43O3uRzmQ41p4S7rjdDqxdvRTr1yzjUyl98IhBOHzkawwOjeH3Dj6P6upcHP79hdzxookY5/7/ou08MsifNCqfrCb/nsIDyQ/hwIadM4YHEvgZGBjBJ5+dxPBoEHY73V6Zy8bpctqx/4UdeZUqJxeKjOHvP/4Nrg53G3v9sw74LQ788d7XsX7h8rx+IuScSoDn48PHEQpFOW8BRTHs2rGeQd3kvBVTyZPk0T3Sj3///i8wnKSskFnYpQEE6tKwu8xEScXswXx1TYCQT0Jz93sTIMwhQMh5bFv5xB5w1aPK08BZCemnxtPCyYZy/to6n9pvBi9xKOCm+uf4Gt7RRD+Dg3sLnYhtnNdA0xWm8ikl8v1FFC1M+1MhJ0RFz96x69K4iH1wWX1YU72DMzaeH/yS+yFWg4BNjaeJoysI0FCGx5QcY5BiE+2ocjfCZnFiLNmfMyOM3ytBpoZctsYHFT75YJBjJT2T/BfIt4GAQj7mYPK8FDkX6pjMNEMTKNVuIaR34S+XpAvY2LgU39v5Iuoqqh448XN2vkyWUxHfUwTwvQ0UPjcBAojxyGSz0FQNTqd9WvaAaOzL3e34zYlPcSs8CEo1ZWQRdQGLKurwR3tfRUt1/YwRAETNU/ZBGvPkQnOiaIB8mRSJPTh67Sx+d+pz9vo3eHkwsT4/eOZl1PinBlyTx00ggZI/BUNk9tFQVuaB3+flHA9TYLV75hxPJfDWqc/w6ZVTSCMLUY/A6xmBv0qHxWqmWjZyj5oAwUhpzq4vEyDMIUCY/CiJUiaLFnboo9M1/V0Sifq+e4kTnfypcG4BXWezwlQKdAJ40EcuI099F0Mh24ToXcroSDoprSbvOckTE0Hjo9P9xF0R1CffAjF++RRdYlPMy01zhkD08nhu/EIGOamOrulIhBWER72QUQddKDyevdBHVdg8OLB6O/au2QqPKz+lXmi/U9UjOn0wNIoPzh5lGjup3Q8GZ9P73bZ0h8Gepev5queZ7piYzdMI6Nwc6MGbX3+Kq4O3jU2zPDEwimaQHDi4+Vk8u2oLXA5nQRiE2ADeuwLt3fygMiNnceHWdTb5DCVCgKjAJg6jrCIG131ZFBmAyzqGrsYQOmGFlsnf/2zkXGrbQuZdat+zbVfMN2S2zzLbzyyBpwoglPJSJEU/rlQcwFBgNTRpZmcoUu0BcRibKj7GitZ2uDx63pOJuUFnJwHOhzCoI5mmlMvkLJn/EqFinkjpiZt8VXh1y15saF2RN2tfMX1Prsv3NSRiOHLlFA5fOYVgOm74RU13nqfr8FvdeGXDHuxZtZmdMI1UY+TX0R8cwqHzx/gmR06x/JDKRProVzY9y6YGh62wfAaFDodSRZOT5XtnvsDVgVt8K6WkR+B2DcFfhQcuanrYAKGUb1ihczXrPd1GGt7hAAAgAElEQVQSmAqYGQ4Q5usGLnVcKdGPS+X7TYAwT98d8kVIxRX2Rchq9dBFAnFGqjvAogtYUFGLg5v3YnXLEjjypPYtVlT0YlJY4xdXT+PQhRNMxxt+zfP9g9KBencF9q/Zxj4WdBtiqe/I/UCnPziCjy8cw/GOS4jT7aLGLscD4rVAwuJAPV7asBtraH0MAgl0G2VHfzc+OHcUl/o7kdFlCMjAIfXDF0jD5ZXuuYNhYmDEIAwzg2CDljVu8kasT7F7s5D6Rp745+scC5HDk1Dn/rUUvvWtb+lGLoqRfRkp8ELpxPufSQDhYtk+EyAYuRgG96WqOhJBFdGwD7JeBV3If/FOsUMQtVwEwIvrdmDtwmUcjjdhu85dpV1coReR/pfOZjEYHsXRq2dwov0SInIS+qSLf4rrtbjaZMMvd3iwY8labF+6DnUVlaDEUjmzUeFzormQeSSZTqMvOIxPLhzDhZ4OJMhEUng3xQ3+vtpWXUS9L4DnVm7h5EkBXxk76tI0ilkfjgzRNFCq67b+2/j04km0j/Yiw+a+LKwYhrcsBl+FdE965cnDuQMQTtoMNTGU+g2blWALaMx72aD0yPN1jgWI4YmoMmF+m5jMUwMQCrm/fqoVNgHC47Hv5ayGeEhHIuaHrFWMgwSDtRNdd2xzYXltC9YtWIrGQC0CXj9cdmfO6TB3c/bMRQf7nETTCYyEg7g13IezndfQExpCinxM8rU3eDkEvnfChkXVDdiwcAWaq+pQ5SvnxEWWiTsOphkT6QRZkTkXA12FTFkpT3VcxmgyCllX53wulLvCLdmwqqkV6xYsR31FFSq9ZZxWetr1GV8zdjjNZhGMRxiwXe3txPnb1xHOJDmkEUIGVj0ItzcMb0CCxTa9KethAIT5rDhNgGDwS/kIu7t/LU2AkGcxTIDwCHdrMY8mZZXRkIgQSHAjqwWgC2RuMNYngUAAZRzw2JyoKwugsbwaXqebT6v0ck3cKXD/0Nm5lMABOXmqKqcU7hkbxEg8gpSSIffO/OCiGHkUU1cHKO0R5VKo8wXQXFmHMqcXVsvEnHLOsxOF5kB/J9aAHPiGokGeSzgVR0rJGhvOWMw8qO74+risNjSUV6OxogZeu4vXhZgBK0UsjM+FsAE5U1L4pqrpSGZS6A+PoCc4hHgmjaxOTsEaRKRhkYJwexKgm78tNnKunX5gJkAodtHu1p/PQKj0WT0+LU2AUORamQChSIE9yuoEEmQNqRgBBRtk1Q9V90IXrMYDBZBSFfmHtBJ92Ehh3jl1TyOH3MVDRMkDiq5Bp4w/86hQGCSlpGYzA49Tv0PVTwyT/o3qaTx2SnBEwIchzqMDOVPIkEAPRcrQPARdYHBGoZkTup3GS5QqJ9LimeQST1FkEa2LABmSHoXNFoXbJ8PpFWGxsM1ixmIChNI3tAkQSpedES1NgFCkFE2AUKTA5kF1SsOczWhIRnSkElYomh8aPFMAhTnm8+eBbMwhTCeBHETIgQkFgh6DRYrC5Zbh9OmwOab3Obi/RxMglL7LTIBQuuyMaGkChCKlaAKEIgU2j6oTUCCzQzKqIZOkPBJ2aJoTumCHruWyAuoGWyDm0fTNoeSRABMglBKBSAGB0nCnIQlpiEIWDo/OUQpWO13EVNwmMQFC6VvPBAily86IliZAKFKKJkAoUmDzrTrfwaBDV3UoWR3kzKgqAlSZfAJ0gJwLzfL0SoDMJSKBALqyWYBkF2Cx0t8LT6Q0FYNAiZLCBkYxzGfFaTopPjmvjwkQilxLEyAUKbB5XP1OKNY4NuChFhHON4+nZg6tJAlM9v/I+VzQfpjtljAZhJIWY/x1LC7EtvQnmS2nkoAJEIrcFyZAKFJgZnVTAk+5BEyAUPoGmM9MSemzenxamgChyLUyAUKRAjOrmxJ4yiVgAoTSN4AJEEqXnREtTYBQpBRNgFCkwMzqpgSecgmYAKH0DWAChNJlZ0RLEyAUKUUTIFCsuA5N0fiK3PH7G/PGghcpZrO6KYGcBNg/RGcnQYoeEKXHzyZtAoTSN7MJEEqXnREtTYBQpBSfdoCgKhrSMRlKRoGm5xy5hDm6K6DIpTKrPwkSoKgTVYMgiRxVYPdYYbVbZu04OJeiMQFC6dI2AULpsjOipQkQipTi0wwQaLMQOMimFDh9Nki2u1noihSjWd2UQBES0KGpQCYhM3vlor1nfXzCUU2AUMRS31fVBAily86IliZAKFKKTzNAoJNcbCwNm8sKh9v6WJ3iilxms/p8kwClzc6qSEYpaZEVdqdlvo1w2vGYAKH0pTIBQumyM6KlCRCKlOLTDBDI5yA6lIKr3P5YfaCLXGKz+jyVAF3jHRtNMUAggPq4FBMglL5SJkAoXXZGtDQBQpFSfJoBAqUqpg+002eHzSkVKTmzuimB2UmA999YGnY3AQSTQSDlOR+LmUlxPq5KaWMyAUKRckuKflwq24ehwGpoEl0fPH0hB76AOIxNFR9jRWs7XB665a/IB86j6rkPdAourx1WEyDMo5V5OoZC+y8enDBxPd0AgVZcnKdpwU2A8OS8j3S76eQiHDx4UDcSmd5JZzvPZFbqHJNSGS6bAMEECPNsPz8NwzEBwr2rXOo3bLq9YlR/RgMEGq9RYzPqPZmves2o+VE/qqoik8lwmPFEEV577TVDL6Q3crPQIB/1wqSkMlypOPDYMggCRM5ZoOuTkeF4bDldYkSB59OUfAwCBT0Kgpj3ZaZn04VJHOR+XxEFicdw7/jurSQKIkSBTpAaVF0FzUkSLdA0lf8+Vb93eyAKx9AtfvflEciznsb+cPq/B8nzlYPj/0K5Ah7SnKZXJmIuRwFffzg35UkBCHOxP4pdkfmmgIsd/6OoPx/X0Ug5JBIJ9PX1MVAwAUKBkn0YAEEQJEwXMJhTozmFOVslQMrbZ6uA3eJEJDOGrJoCKWS7xQ2X5EJWyyCWDU+rnGcCCPSBsUoOVDrr4bS4eKycJYGACOsyvvqGEyullQRGEr2Qtew9UpcECwKuem4bTg9DVjPcLgdocq0JHPjtVajzLkBWSaE71oaAsxbN/mUYSw5yv1k1jbSSekB5UVub5IJFsvLNjZquQdVkKFp2HFgUuAkmVeN5izaWoV1yIKOmkMhGoTFQeTjFItrgtHhgES0sU1lNI6nE5gSY5NbAggpnDa9TSo4jo6Sg6vLDmeykXk2A8PBEbAKE4mX7pAOEcDiM69evQ5bvvtsmg5BnnxgNEEhBVzrr4HMExp886Vg4rlBJkY+lhpDMRmYFEuySEzuaXkaNpwknew+hP9qJgKsOzWXLUOtpRkKO4njPB0hmo1M+Jx9AqHY3Y9+i78NhcTMwIIUZlyOwiFZYBCsrdEm0Iq0m8X77zxBODY3PkECAwEpvz4JXQOO8Nnwao6l+SNROyyKeCbLSlQQJDb5FWF29E0k5hgvDx7C2egdW1+xARklC1jIYiN7GVz3vPTAPp82H1dXbsaRiDUjJpuU4hhK9aB89h6FET9EggT6qTosXa6p3YFn1JgYzl4dO4PLwCWSURPFfnAJb1Hiasb3pG6hw1rJce2Md+Kzz1wy85qK4bH68uOgHDBLC6RGcH/wK3ZHrDOgKLRMkC7E/E8qJ2Qhmsaa+VNMECIVKt/h6JkAoXmZPA0C4du2aCRCK2RpGAwSb5MSWhn1oKVsGq2SH2+qDzeJALBVEVs/wKTeSHsWloePoibTN6mTqsLiwr/V7qPO34sjN3+JW9DpafEtYuTqsboRTI7g4eAxD8dtTKsuZAAIBnVpXC/Yt+T6ICVChMlsxmhqEx+YBdAGRbBBOi5sV6bs3/gFjyX6eM9VzWj1w2jxYUbkZC8pXIqskkZBjSCtJ3Bg5i2ujX0NRZbhsXrSWr8aKqi3IqGkMxrqwqnorRpODiGaCaK1YhVBqGF/dfhfhzCifrieYFzJDuKw+VHua0OxbggpXDRRNwY2RU+gIXoKiFX4Kpjk4rV5sqt+LjfV7EUmP4fLQMbSPXUCMwAy0HPsxUSa8U+8z4+QYkpzZI6c0J3iWyW3HOxk3JVhFO/yOSiwNbMCa2p2IZkbx9rW/Y4B3f5lgYMZpmPHeJ9kU7zyf7Xf3/X7iqmOmcO7IkRiEWs8ClvviwBqk5SQ+v/0musPXCwJZuibAAR981jLeD6JoYUkpuoKsmkFCDiGhhaGL95ovTIBQzJequLomQChOXvymzoEpsfhRGdeCGAQTIBQpT6MBAtHeRE8TTe2x+bG2ZhcafK34qus99MdvA4LOtnWirhU1OysGgQDC863fQ6N3Eb7segsdocsgZbOwYiUDk47R84hmQ0y5T1VmAgikfBf6V2FN7Q547RV8KqS+fY4KZhDGkgOQSQHrGpsCTvV9jNHkADy2MlZ0dCq2SBaWQ6W7gcHAzbELXCeeDaMvfovn3+RfivV1z6DRtxhWkfwQcoqUTCYOyQ2n1YWx1CDCqVFcHTmFztAlqJrCPgqVrnq4bX5+Bv3YJAfIvENj6422TzvvqWRBwGZV1TY8u+B1hNIj+PL2W+iPdbJ5g1SpRbKhytWYG50gwGX1sEwIvASTxJzocFv9KHdVwy652dwSSg0xuCBTUJWrgeVG/+62erltOD3KIE7VFWZAVlRtxtaGA0goUbxzH0AgYEBMTpmjkkEVKXU64dNc49kIi42Uc7mzhsdGY0zLCR5fQo5AhMjrWOasZlml1RSCyQFmbYgdIkDosnqxqno7g6Rgagif3vwVxlL9DGqnLTog6XZsqd+PbS0vMCicDKRojJcHTvH+JJAw2V/EBAhFfqyKqG4ChCKENYHXTYBQvNDub2E6KU4f5kgfYVJYdBq0Sjm78rKqTahxN+Js/xG2p1Oh0yh9mIlJoA8oKR8CFjPfkJSzscsqKfvciZEBwqLvY0nFWrSNnkfb2DkMJ3q4DtfVyGN1+o/7TACBlMjSyk1YULb8jvL12svhdwT4VEmKhyhkUvwDsdu4PnqG50eKlk6jRFdbRStsFicafYtQ7qxif4h4JozBWDcujRxHIhtm0EH+Bmtrd8FpJbu/k+VA5gcaA82DTBheWzkuDh3Fqb5PWGZUb3XNTjalkAImBVvvXcjtzg0cwfmBIwzCCimk0MocVXhp6Y8ZqHzc8UtcGTnB4GCi8O+X/JjXStMUeOxl/Odrw1/jePcHPPZV1TuY8SBlSz+3QldwYfAoMyMvLf4hfPZyZgUIRNktDvRFO/Hl7bcRTA+xqSUHEF58ACDQ+KjN2tqdaPItgc3qYjCgaipO9HyEG6OnxtmarVgSWMd9EeNDvhOXB4+jK3KNzRfrap9Bg7+VFTixK9dHzzJLkiCAwbhHZDnsXfh7DNxO9HyIcwOfMQswUxF1K1ZVbMdzS19HlaeO5z5RIqkgTt7+GF/3H0Jaj5sAoZANaUAdEyAUL0STQSheZg+0MAHC9ACB7Ov0YV0WWA+X3cfKr9JdB4/Nh/5YF3+wqZAj3VC8B9dHTiOlJLCyegsCzjqIdMXdNIVYh2BqEFeGT95RXBMAYVlgI2KZEFJyDCPJflZM/dFbSCnxGU0Y+XwQyh3V2N70Eit68jUgswEBH6LxaS6kpIlNP9nzEboiN1hxumw+LCxbhVpvMyt4lW7uA1gO1P7K0NdoHzvHJ1QCGtRfi385NtU/D4/dPw5uVAYGdPqmUy05YRIwOTf4BT+LAAIpQQJibMqweLA4sBaNviXoGLuIS0NfIZQemvnkO0nOZEJpKVuO/Yt/H3bJhV9c/LdsLpnsRFrlbsSP1v0VHBYnboWusaKv8y5ET6QdR7veBq3BtqYDbBa5GbyMRYE18NnK8WXXO+iNduAP1v4bPr33RtpxO3QNiyrWoMxZhU9vvoFLw18xkJsOIBAzsr72GWxvfhGh5DCujZxBa/kqNJYtwbHu93Bx8ChaK9ZgT8sriGZC7DdBAJQUfjA5yHtsV9PLDKj6oh0YSfTz+IgN+bD95+iO3LgjDXoWrcXmhn3MoHzQ9k/c14xFB1yCD+vqnsWWludR6a7lSBQyKZ3tOYLTvYcRyg5AF0wTgwGf4IK6MAFCQWK6p5IJEIqXmQkQJkkgX6Ik+iATzUwnRVJ8Los3xyB4mnCm/zOMJPr4BEXKjz7a0fQohwcu8C9HuauGld644fo+uedO1HRqvxW5doc6nzAxkP39wtAxrrOwfBUcVif6Ih043fc5wpmhaW1r+QACnSa/verPYBPtPE5S+GSuYMWpg/0c6LT4fts/oG3sPCs5AhJkWvHZAyi3B+B1VLJ3PinzgLsWt8au4HT/p2xmoLakZInSXli2ghmPpBxnYBVKj6I30gFdV7kt2cbJWZBOzOTkSYXak6zJwXF51Sb0xTpxblzOufDIwgqxD6trtmNH00usDH995a+Z3ZhcCCD8eP3/xHT+0dtvYzQ1gHJ7NY83Loexu+UVPuEPxXvZ5FDpqmVzzPHuD9EePI8frPkLNoF8duu3uBm8iF3N38Lyyg04O/Aljna/zaBxOoDgtVXg1RU/ZSaGqPpLQyewrXE/VtfuwvGe93Fj5DQzD2tqduJE9wc4PXD4DogktqDSXc/sSLN/KbrCbezMWe1uZLbn/bZ/wo2xs3eYJjKDkInowOI/4D36y0v/lv0x8hV6jkssw9qa3djc/BzsFhfO9xLj8ymi8vAD4ID6M00M+aRa+u9NgFC87EyAULzMTIBQBECYLCz6YBIlT6exprKl+KzzjZzC40r3xtUT8yCJ4oyR73TaUzXKE3DX8W4CIDR4W/HF7d+iK9rGVDw5BpKSPtP3OUZSvdOyCPkAgt9Rhd9b9eewiTa2nVPUQiwbAmXjog8QmRFojh+0/YyV4IQtu97bii2N+1DhqoWqKkiriXGfjDKk5Rg+6vgXDMS7mOqudDWwg2KTfxH7NNgkGwRIzH7QaT6ejfKpfHlgAzpDV3Cs5wPEMmMsK2IcNtQ+i/V1e9iRkkwK10fP4Vj3uxwBUWghULO8ajOeaTnIY/j/Lv3fzF7cDxB+uO6vMBTvwuHONzCc7CV3Eh4HyeG5hd/BsqqN6ApdY4VK8iGHTHJyjGbD+NHaf8PAipwPg6lh7Fv8+1hcvgZHbv0OZwcPM2icCiAQ6Kx1L8BrK/8UXpsfb1z+jww0dy94hf0FjvW8h7aRc9jR/DKWVW7EF7ffwvmBz++EnBKIavAtxjcW/xA1vma0jZxFSk4y80MmnyvDX2Mk0X0HRBJYWlm1FXtbf49ZqV9d/g8M5goqugCH4GbfFQJ57aGLSOnhaS1nJkAoSKolVTIBQvFiMwFC8TIzAUKJAIGakT/Clvp9TCd/0fU2eiLX2YlOEkSm0ilPwUw+AvmWazJAOEIn0/BldoCkkyGZK8iGTn+fLpFQUQBBzXB/dIImZUYfIGIY3DYfDrX/Ah3B8/zv5Ei3reEA1tXtwfGeD9ERvMBOhaToyCRBLEkwNcB2eSrESjT6l7IPgk2ycww+KX4yb7htXjZnkJNiMpszn1wZOsHOdSRbOq0ur8wxB0TrU0gljeHNK3/NSo3GSPLNxyYwk+FZgJeX/SHK7AH8y8X/C4PxW/eYKIhBIIAwGL+dAwiJ3jtrR5EUO5u/ifV1u3Gm7whT/uQDQMCKTBEU2fKH6/+KAcL7bf8Mi2DBrpZX2G/hrWt/j95oG/ugEFAiJ0UCR1Qvlg2y4q52N+G1FX/CJopPOn4FWUtja+MBdtIkNuPc4JdYW7MTO5pfQsfYJQYNkXSQ80MQM0FM1oEl/4ojaz7rfJMZDEIItBYEviaDKVo/Cp0lRuXm2EUcvvUGA51iCjmQsp+DKs/oVmMChGKkWlxdEyAUJy8+tplOisUL7f4Wpg9C4XcxEKW8unoHNtQ9y3H5o8l+jnOnMhC7hZ5oxx26vJSVIYCwt/U7qPcQg/A7dIavsEIotBQCEL636l9DEiUGBnQqnJxpj5gPet65gS/QEbzI3vKk5DfUPYeNdc+hM3gJvbGbrOSJuiZ/AjJVXB85mfO8HwcIzf7lHC1ByZDaRs9x0iSi01NqglmErJZG59hlDMa7OE6fFNvGur1sVugKXceFoaNIKUnsX/R91LibcX7gC6TUOHRNvyP3fImOCHA83/pdPsWf7vuUqXECGRMAjiIxfrD6LzCY6MaRW28yWJn4HSnEBWUrsb3xRTisHlwbPsW/c1hdzHrE5Ah+vPYvmXYn/wCSA5lg2sbO4uu+T1hBkxmGwA75fBBYoHpD8W70RNs5YdXzC7+DFdWb2XxBbI7fXsHhhBcGv2IzQ8BZw4q90lWHW+GrHPVBQJHaD8W6sKxyE7Y0vMAMCYWZkl8JKRGKDKFIBXqviUmp9yzAMwtfZ5+PI51vsvmhmHDRQvce1TMBQjHSKq6uCRCKk5cJEIqX15QtTIBQOECgUzN9aJt8S/nEOxE6T+zBUKybFR7Z3UstpIzX1e4BnW4vDBzFAJ96C7e95wMI5Y4afGfVn3FUAZ2Ypw530xHLhNEZvMIJfshngLInEn1Otm9yMJRVGRk1yfZ6oq3bRs/yyZrkQ0mlVlZvBZklSBaJbIwVG0Vj3ApdZVNJc9lSNp2QY2f72Hn2EyBFnosUuIpIegQQRDT7lmJB2QqOnKDQQXoGUf4k53xyISVPTo7PLniNFfj5wS8YrNB4SalSaOGaml0chXE7fPWBpE3EjjT4l4DMPbQu5KtBIaY9kQ4eyx+u+yt2qLw6fAqh9DBCqRF0ha9x/8QscIItVz3njCDgR3uEHC0JYBAIq3G3YGnlOthFJ5JqgpMoUdQMJdyi8ZCtgyI6iI3xWL28pWJylHNtkFnEJjqwsGI1ql2NzGARe0VhltSWwBqNn55P5hoCbDdGz7BDKCXGeliprE2AUOqbn7+dCRDyy2iqw2/xrR6fFmYehBLWyug8CPcPgV5UilnPhTGOl4m0wHnvGZh5QtQnKU5OxJQJ8Qm8mI95vrsYHBYPFpav5KTKSTkxbZ5+Yghi6SBicu7EnUuB7GBQRBEGFNZJCo3i8ikCgeoTE8Hhe/ZyVLnq2dTAzo+CyNEYFOVAaX/Z8dPmR4Wzmk+5lEchKUf5BEyFlPedk7xgYUBCyk7VNWZn6HmkoAsp5FhKERhbG/dzAiYCFmSjJ0VOSppO2DRGitaYKk02+UFwlknJznXopE/AhLJq/nj9/8zRHO/d+CfO0UDZJO/vZ+JOijuZCDl1dO5ZBCAIODFro8s5s814yCyFO9K6U3vyISCmB6IAWUnz6X8CHNH4OSJlvA/6HcmGTCDE+rSWr+Rwyt5IGzMbZNqZjQksn8xNgJBPQqX/3gQIxcvONDEUL7MHWpgMQuEMggHiztvFRFKaUu51yAcQiDngyIrc7REzXx80xcVQd7MKTmT1e/DSo9yFUJPvzCY4MnFB0kR9Alm5Orz/8lxkdPeeiOIvWSIFT+aEBu8iTixEJ/Du8A22+xde7l4gNeGs+u3V/zUoyu/Djl9wZst8jEbhz5quZuGXWBGoWl/7HPt8UGhjf+w2EplQXt+N2Y7RBAizleD07U2AULxsTYBQvMxMgDBJAvnCHA0Q75x2kR8gzOlw5tXDmAkQrVA0dTystHiwMTEhckwlUwkBLTKzTMdAPCoBkDIhxocAYS7JVmGMy2zHawKE2UrQBAhGStAECAZI02QQ5heDMJslnQAITq8dNuf0SZpm8wyzrSmB6SRgAoSHtzdMBqF42ZoAoXiZmQzCk84gjKbg8Fphd+Vs+mYxJTBXElBlDYlwBnY37T+6h+PxKIqsY/hqDKGTNmgZCqUtnV16WDM2AULxkp2P61j8LKZvYTopliDNh+2kWMKQ5qwJhQEmIhm+mdHps0Gc8KOc7BIwZ6MxH/RUSGBcl9LHOJtSIacVOL02WOyPD4NlAoQnc6fOZ4BgBOALhUIP3ub46quvGgpvjRaikf2VIkQCCJfL92MosBoa22GnL0+aDwLNVMmqSMVk6IoG0SZBoLsTJJEwg1lMCRguAdpfqkLpxnXoqn6HPRDEx2fDPSyAUMr3y/AFeoo7NFIXGSVG2hNG7YspAcLBgwfnNUAwUpCl9PW0AwSSmapokNMq5IxK+ZwhWPLdLFmKpM02pgTotnMNpGAtTgk2hwUWq4jHCRwwqJZ1DJGJ4YSVTQxGFaMUgVHjmehnPipOo+dodH9GyGwCHIh3qN3ZjZIAwtWrVyHLd5PpCRMAwYgBz254D7d1qS+XCRBy65JzPh1Po2DcN+/hLrrZ++MngfHjCkWt8jv7GO41RdYwdDVuAoTHb/fN2YiN0LecQ0cUDWUQTIBQ5BYoHiAMYXP5ISxv7YDLyyntzWJKwJTAUyQBEyA8RYtd4lRNgFCi4B5Ws7liEMqEYWzyf4yVrW3wlJkA4WGtp9mvKYH5KgFyrhy+mkD4tGlimK9r9KjHZQKER70C9z1/LgACPdKlR7HacQTrF55GeZUGaarowDsJAMnB5OELijcjPXMOnvXwZ2M+wZTAPJTA+DutUeTPiIyxywriHRJgZE4pckibl1Mf/77MYmzzMBJ0FrPJ39QECPllNKc15gogWNUUmuUzWBf4HDUNYdg89EqL977YdNeCpnPoltVhgWQxzhN1slApTFFVdcgpBbKsQhQ5cfGcyt18mCmBp0ECjME1nR15U8Mqkt0SlLgAaAbOft4ChFyq9JIKZ/zWoaVEaFkBupHyKmlAc9PIBAhzI+eCnzJXAMGiplCbuIh1HgIIg7CxH8J9SlkHFEWje4f4WO8qs8HltRnqrU1Z6JKRDNKxLDMHmibAIj2eTl8FL7JZ0ZTAI5OAwCwdKThNAeYoG/Ujm61RDyZQRd8qJQGkukVkhqSnAiSYAMGoHWRQP3MFEBxaHEulY1jfcBzVTVlY7VOf2HVKJKADmZSMdFSG3WOFy2c1BCRQHHkqnEE2rcLps8LGWeiIpSgR5Ru0BmY3pgRMCZgSuCsByjKZi4yihFih2xmEz0qQo7lv45NcTIAwz1Z3LgACJUryIxuRnKEAACAASURBVIR13k+xZtFl+Cr0vD4GhKApEVE6JsPhtnDGQoFO+iUWTSHmIMsvnMNn4z4ftzjyEqduNjMlYErgMZUAJcWKj2YwfE5BotNirO/GPJSJCRDm2aLMFUAICEPYVHEIK1pvwuXNDxBITAQSMgmFTQI2lxUuvw1iCSCBwAHlrqfshwQ0KH+9CQ7m2UY0h2NKwJTAAxIghZmKKhi5mEb0sgW6XPoh6XEQrwkQ5tkqzRlAEAkgfIwVCykPQmEAgUECmRsSMhLB3OU0znGQUFCUgw6oqoZEKINsQoGnygG7k8wV82wRzOGYEjAlYEpgCgmQwkzHxgHCJQs0EyDk3SdmoqS8Iiq8wtwBhNld95yOy0iGsxAtAvsliJTWeAYwTW4FmqwiFVegKSrcASfsTkte00bhkssxHBOZFHPId9x2WEwnM9Ud94BmMMR+lDRnndkP8THNpmeUaMx+TAk8DRKg70omrmD4fI5BMAFC/lU3AUJ+GRVc43EBCOywk1GQimWhpFW+tIaIAH0aKoFeLJqb1WFls4LVbgxtMOFdzPcwZNRcqGRWBZkxxjFCwbLPW3EiRGocCFE4psUqweK0wGaXOB8/ASbOOf5kM495RWVWMCXwJErABAjFr6oJEIqX2bQtHhuAwPaG3N0HBA7uevNOpxnHzRicl3v22pNjubN0OZOCbEqGnNH4BkemJHIpHR66jp7wbJ74f8oTYXNaYHXk8kbQbZIFmV4M3D9mV6YETAk8PAmYAKF42ZoAoXiZPRkAwcB5F9oVvaBKRkM6qTBboMhKDhPk/sOgYM6veB4PdZowcZC5gYCCzW2FzSExUDCLKQFTAo+/BEyAUPwamgCheJmZAKEEmWmqhkxS4aRKxB6Qc+O8u0mP46Vz5g1BFNnPgnI8WGxSCTM2m5gSMCUwnyRgAoTiV8MECMXLzAQIRcqMfAxS0Wwu4yIVMlPM3lJR5CiKqE5OmZpOPozMIrjKnYb5XRQxipKq3r0ym0xHlDUjV1jcZhKrkmT62DfifaDnUqBPOOkSYzef38GHIHQTIBQvVBMgFC8zEyAUITNyOIyHUkhGMxwt8VhR9sQmqDosFgmeKte8Bgl30snKOuQ0+XeQnwel5KXE8wIEyWRBiti2T1RVdjOSsxCtFohWATYbYHMKsNiF3B0tdH/KU4AWTIBQ/LY2AULxMpuxRSkvWkoqw+Xy/RgKrIYmOWbuHzoC4uzCHA2e8rTdqbKGRCTNaZ4h4fECB+Oz4hO5qkOySPBWOjniYT6xH5Rjnpw80wkd6bgIWbFC111QddpHFj435hgE05dirvb9/HsO8QcTO0GDKGQhCimISMPuVOH0arA6RFisObDwpBYTIBS/sqTPJkBC8a0fbBEKhXD16lXIsnznl8LBgweZ6TQis5MRg5xvfRBAuFJx4IkCCORzQLkW4pEMZ2wsJWvjvFknivZQc+YGd7kDVvJJeMTfUToVMjCIaUgm7MjKLmi6F7pgRy5o9SEOkHw0pumfFNE4Ipk3y1fQQMavKhcmeck+tnO5Y026uwc0aJNYgtzlBIKuQkACFjEGpyMNp1eF3S0xq/AklqcNIBi1hhOH3lIOv/ePgQDCtWvXTIBQzOI8aQAhl7Esi3gozerisTIrTLdwxCRo4NTS7jIHJOujO5GTOSGd0BCPSEgnPVAFHzQQY2AwMBgHAjZBgiSIsEgS/8iyAofVNgUtrSOryDmIIAiQVYUPBRlNgUb/Ok/0jqABFlGETbRAFERYLRYO9aUcGBOXpvMeljM8XwoFVjQViq5Dnk9zoTEDsAoWWESJ52SR6NI0QJrICDZ+MEtm07BZrVBpHqoGRVd5Ljk8pEBCHDZLBG5vGq6yHJvwpBUTIJS2okYAg4knh8NhEyAUuwxPFEDgk62K2FgaqqIWdimURv5zs7xajS5ne9j0qEbei4Cr3JG78OoRfEMJpKRiKuIhG1JyOTTdB53zXRs4GEqMpQNuiwPVvnKsqF+IxkAt3HYHgz1KuU1KdaonKqp6Z/sTWBgMj+JG/y30jA0jJqdAUOGRCI7gkwY4JBsqXF4sa2jBwqoGeBzunFIViHe5N/eFrCgMGshhNSWn0TM6iBt9tzAYDSKuZHLK1UCxF/PdEHUBbsmGal8FljfQ+tTAbXNAkqScH+KkzUmvFq0FgR1V0xBLJdA53IvrfbcQSsaQ1mToNH8hA6sQhMsdg69ShPSEgQQTIBSzw+7WNQFCaXIzrNWTBBDodEt3PaTi2Rw4yPMBFWQdelSGEJVhBZ2ASjiZi4DqlpD1SdBLuICqmIVkfwSbBG9g3NRQTGMD6qbjGiIjFqTlKqiCZ5w1MKDj8S44cgMSqr3l2LtqM1Y2LUGZxwuXzZ7LMpnLVpFHM47/fvwUHk0mcHOwB19cOY2Okd4co1DCMs9mllZdRJW7DNsWr8bG1hWo9JXDZc8p1Ok36d15apqGVDaNSCKGK90dOHz5FIZiQciCNqe5O2h9HIIV9WWVeGbFJqxoXAi/2wvnPeszlaQm5qLn7lTJpBCKRXDq5mUcvXYOoUwCqkh1srBgFF53BL7qJ8vcYAKE0t4gEyCUJjfDWj0xAIFOKmkFcWIPNMp1UMDxKqVC70pC707BLYhwWKXiPaolAdlaG1LNDqi2Ap45m5Ujj3BFY18Ep98+p4fhbEZDZFBAMl0FVfQ/FHDgtTqxrmkJXt60B7VllbBZrMWvxxTyVVQFoVgUn146ga/aLiCUTeTMDg+76IBdkLC8pgX71+7AssaFcBITUiL9Q0qGmZHQKN4/8wUu9HYgpqTmYiYQNJ1ZnY0LlmPf2u1orqyFzWorWYJsRslm0NZ/Gx+e+wptI71Ia1nougybMAhfeQyecsoq+pDfqZJnUFxDEyAUJ6+J2iZAKE1uhrV6UgACsweRDF8pzR+VAj7CQkqF2pkAOhPwCBY4SokSIIBQZ0eq1fnwAQKdn1UNkijCX+eGRBddzUFRFR2RUQXxaCUUIUBWZkOfSk6HZXYXtreuxt7V21AfqGL7vJGFPtBEbx+9dhafXTmFgUTooYMEmy5hfeNifGPjbrTWNM5KoU6WBc1lKDyGTy+ewPGbl/gEfsep0UihTWJ2PBYHdixegxfWbkddeRWbDIwo5Ctya7AHhy4cx4WeDiS1DAQ9DbulH2WVGTi8xl7MZsSYS+nDBAilSO1ec1VpPdxtZfoglCDBJwUgKFkN0ZEEFEUrzDGRTuMpFdmOJNSbabhEK5x2+hgVeWKxCFAbLJBbrdAeNoMwfm023W7pq3bD4aYTdgmLXkQTsiGnYgqCQ3bIegNHKhhadMAp2bBt4Uq8uGEX27Ml0Rjlc/846SMdScZx5MopfHL5awTTsYdG0dsgYll1C17f9jxaa5uYDTGykNmhPziCj84fxYnOK0gombwmtVKf74QFW1tX4+WNu1EfqDZ8fcjfon2gC++cPoIrA51QoEJCGF7PCHyVgMVmLFgsVQ6zaWcChNKkV/T3eIbHmAChhDV4EgACKTFKpRwbTkCgMKlCtKYOqEkN0etpxNszcEkuOJ1E2xencQULYGkErEt06KUzrkWtHCUgokud/FWuh07BUibK0ICCRLJh3LRQnHzyTYy8+lsr6vCD3S9hSX0LrOOe8Pnalfp7+lAPhEbx1teHcfLWFWRx17Gx1D7vb0e2+hpXGX6452WsbllqODiYeB45Zbb338avT3yMG6O9D4URIefK1vI6/PDZbzHQMYo5uF9mGTmL0x2X8cbxjzGcjkIQMrCLwyirTMDpI9OfUavzaPoxAUJpci/2ezzTU0yAUMIaPAkAgTy9E+EMUpQxkRwNC/mYMEBQEb+RRqKDAIKD7cO5EK3CCluxrYDUKEBaTACh8LaFPWHqWjRfXdFR2eQtKOSRKHw6lROQUnWl4EdT/XRCQWjIhrTWnJuskYXYA8GCg5uexf51O+CyO43sfdq+ZEXG2c5rePPrT9EbHWMveiOLU7Di+RVb8OrWvfA4XUZ2/UBf5PBHpoYPLhxFJJsubO8XOiId8Ep2fHf7fuxZuQn2Wfgc5HskrUA4HsUbxz7CVx0XIUOBRQjB5x+FtyKXddGoIgnSuAlr+j7JZEPvykz5c3LKS4BO4T15igkQ8klo6t+bAKE0uRnW6kkACOQZHRlMgrInkv9BQbcy0hcppULpTEDtTMED8kEo3sSgWwQoDVZkFtrnxMRAC08fGzWro7zODZszv2Ol3eJEs28ZkkocQ/FuKNr4vRT5PmqajuiIgkiketz3wLiPND9a11HrKMNfvvbHqC0PzMje0Gk5lUpzkiSHw84pqKkQ1Z5MppGVZf4zRTvQ752O6dkg+viTMvrllx/i+O3LufBHgwphjWqnD3+893WsallckC+FoqhIJlOc44Gca2n8DjtFbuSXt6Zr6Bsbxt8c+g1uhvsKY88KnCuzO+V1+Nff/ANU+csLbAVei0wmy1EaDrttPAIlf3PKk3Ct7xb+84e/QlBOQBSScNoGUF4jc6KwqQrtB5uFgL0VWS0NRZ15b9skJ6rc9fDbKzm/xp3CN76LuSvoBUBWMxhO9iKcHpkSAIiCBJ+9AnbJiUhmDBk1OSOYMAFC/vWfcn2LOLDle4LJIOST0BS/fyIAgqxjrDfKoY0FRS+My4GcFLVxJ0WXIMFpK94higBCtt6O1MLCnRQpY55ACYBEaTz+PXcK0aFxMhn66M90qqVvmCbr8FTY4OJohnsVycRH02Mrg01yoNrViG1NBzAQ78KloeNQNQWqJmM0OYCsmpp219BdFqFBGdFkC3QOazS2WHUBOxetxR88+wo8jqnZA4pICYdjaOvowplzV1nxP7t7MxYuaGAFGo7E8NEnx9DZ2cuKiXDf8iUL8OL+nSgv800LOojS/uTCcbxz7ktElellUOyMLRCxuXk5vrfzAGrLq/I2T6czuHq9E18cPcPzJMfT1gWN2L1zIxobaiAVEHobTyfxL1+8h6PtF8bDBfM+tqAKDsGCl9bswCtb9sJhy+97QkBneDSIS5c70NZxG00Ntdi9cwMCFf6CTXeheBT/z3v/grbRXuiCDKvQj0BdCk7P1ADBaXFjdc0uBFy1uD5yGkOJHg6FpXdJBCVxskDVVaTlOFRdQ4WrDlsb9qHet5DfOY/VDxUaskoKbpsP8WyE3z/636WBr3Bp6BhkLXOPvCyiFdWeZu6H2hzv/gBdkev8Xk1XTIBQ0JZ7oJLJIJQmN8NaPQkAQcmqGO2Jw0IUfxGIcyKKQehMwC1IcMwBQKB7CTwWPxZXr4bXWQarZOW7CviTpMoIJkZxO9iGWDbEH7kpUTWZChQNDrcN3krHA6CIIgCqXI1YVrkJNZ4mPjERUBhJ9iOaCULTVO7/4sBRPv1M5wFP6ZTDQwISmSZoMJj+H6evf7TnW9i2dG0uo+B9hZ0KI3EcP3UBJ05ewvDIGAIVZXjtW3uxft0yPqHGYglcuNiGZDrNrU+fvYKR0RC+9/oBbNm8Glbrg/1SPcpOeL3nJv7ly/fRFRsx7H2iPAGvrN+DFzfszGsyIfDT2dmD3759mMe8dfNqDAyOoONmD7ZvW4uXX9yDMr8379go9PGra+fwi68+QILYofzEQ94+qYJXdOBP9r6GTUtW5WVCiL0ZHBrDx58dx+UrN5kRWb50IV57ZS8DnUI/9JTv4a2Th/HR5ZPI6JQ8aRAV1VG4fZRQ6sFh++wBPLvgdf5d2+h52CUHPDY/vztW0QaLZEMwNYK2sTNIZuOocNZgfd0z/F5ougK/PcDJvggUENgYSw7wn+k7cm3oJK6OfH0P40bvUYN3EdbX7YHPUcGg5P9v70tg5LquK0/tXdULe2M32dxJSVxEStRCiZZkWZI3eRGpSezYnkwSxFkmySSYAJM4wQCxEwwwg0ECDCaxkSB2nHEQ27EVWZY3WZIla7UoiRJJiTvZ7G42l9732v8yuK+6Wr1UV/3/6/6q39X3CwQl1Xvv33fufe+df999950YfBXpbKLoSRIhCJZMTgiCM5jcq1ULBCGT0jF+bSaXfc0hQYjRMUeLBEHNU7PvMQOYPeZoLQ9CwBfEluad+Nw9v4/2pnWzE2cuARD90z9yCT9661voHj0JHUW+SCijYDiEpo7okkBF8iDEQo1Y37gN+9bdg41NO3B58iJ6x08pQhDPTCGjp5DKJtTXkWEWCNSjwM+kjonhMBKZDTBR+gvSlpWaQHMwhj859BvY2tFV0A2dIwjTuNB9GYNDY3j9zXcQCATx8Yfvw+237kIwGFRu3Uwmq9zzU9Mz+MGPX8SZc5fwsQ/fhwc/cACRSOHIURWsODaMr/7scZwbvcK2qFL8wWcOfgQP7rurZMBlOpPBz37+Op57/nVs2bIeD3/4Xrzw0pt44+hJdHa04Xc//8vYsrmr5OJKXqcL1/rw5Z98G2NagqcvpJ9QFH/08Oewe9OOkqolgjA4OIqzF3rV3++cPI+urg4c+sQD2GSDINCJhtfOH8e/vvwUZvQEQr5hrGkdR2OLv6B3sC26Dp/Y+VsYjF/GyYFfYE1dGxrrWmfv66A01RrGk0O4MnUBWT2L9Y1bceu692NtbD0CfvIwRBANx0BbD2ktiWR2RnkWUloCZ4aP4t3BV5DRcx6ESDCG7c03Y1/nPQgFwoo8nB89jnhmsiQ+QhBKQlT4Y8jGfF7qDbLFUAqhAr+veIKgFjIN49fjjjwIxqUE9EsJhMwIQnQXrYXPr0DAh2hdTLm4k1oa2U4T2vagpRgEWrxbIh345G2/itu23YNopF5phchBKpPAmxdfxDPvPo7R5MCyHgQqTxdS0Rc0xSEUSiYT9IexoWk77t38iJoMB+L9aiK7Nt2Lkfg15VWgGICe8dMYTy/dZ80FKOoYH44gpW0A5Tgs9ahLlCjttJXU1aaJJn8Uf/XZP0BnM+VWKPzQwkMxJrT4f+3/fQ/pVBYPf5QIws45gjA+MYVTZy/hwoU+nD/fi5bWJnz6P3wEW7cUJh45vKGy+f3dj7+Fs6P9y25N0Zevpf7MNlrnD+JzBx/Gg/sOzN1NsFzf4vEkHnviGRx54x088P4DaG1twvMvvIGh4TGEwyH83m9/GrfsvankHj598fYPD+B/P/F1jOuJZQmF3b60hGP4o4f/I3Zt3FZK9ep30pOu6+jtu4rv/PvTaG1rxqGPf8CWB4HIzrFLZ/HV5x7HtJ5E0DeCpjWjWNMeKKijtfWb8Kk9f4CLY+/glcs/hEFufgrINXQ1ftR107RlQCTY50dL3Vpsad6FaLAB9eFGtEQ70FG/UW1DEJFI62mYpo6xxCAuTZzE9akeFawYCkSwt+OgIgdpLYUT119C39Q5pLLWclAIQbBkQuJBcAaTe7VqgiCkNExej8NHV8baYJy5GIQEMt1paEYDzCBFnBf3z1LzRCQ6OjuVW3x4bAjZ1jjCNxgww9ai4f2mH+sat+Ij+34Jt247iLpwTJGDd/pex1PHv4uhOB1ZK378TiVMCgbRvG7pUUcKtmqPrsP7Nn0c21pvxrXpHvSMncLmNTvR2bAFKT2OjJFG7/hZnB46UjAQK390dHwoipTWBbMIQaDETdFQBNFQHXw+E8lMGkkto2IsKDt/Ws+q7JbzH5owW4IxfOlXfh8dzW0ladn09Az+4WuPIZnMLCAI1C4tSM88dwS9vVcUkbhh+2b80uEPqq/vXIrmwg8RhK889W2cHrm8xPNEdhQL1ak7BlQ8azatLlAKq7sT6H4BTW1TLOwUUO8P4zPv+yge2EsEYfl8Dipqf2IK33n8pzh2/Cw+9OBBFYtAxI/2yoeHx/Drv3oId9+5by4gc7l+EJaXh6/jb77/zxgt4EGgLaf6cFTpiLayEukU0noGkUBIEVPqC71zcV/aIg34w4c/i50brBGEfP1LPf345nd+gtZWBwRB13Gi5xz+8fnHMaUlEPCNorl5FE1tSz0IpKPO+q14dNdv4/zYcRzpfxot0U7EQg24Nn0RCeUNmD8mfWpLYc/au7Em2oa1sS7lcaC4g6yRVYGJZLMUeEhj5qW+J1XsAj2xUBMe3fM7aKnrxCt9P8K5kbeQ1opvKyy29/SMhqHjKUydDMLIMu0Dubc0eKJlO/N5KYHFg1AKoQK/r3iCQBnc0zomrs44Jghadwo+I0Z3KpdG0AeEI1G0d+1AIBTG2HAv0msm4dth75ij3wyga802fPDmw9jeuRsXB07jqWP/htHUAEwKHy/xEEEIhYNo6lhKEMj9uXvtAeVKvTrZg/7J89jasgc72/eDTjQc6X8GZ0beQCIzrYIU1Z7r4kelrtYxMRRSWwy5GxuXPjSA2xua8eDuO7Bz/VaEAyH0jVzFO/0X0d7YrD7V3+w5g5EZiqmY95hQBOGPH/k17OjcWPIreTmCQC3S/e50kmFyakZ9gb994gy2bd2I3/r1R9HUVDi4kqLVr40N4Z9+9r2CWwy0oD687yBu3XyTkvvy6ADe6b+AbWvXqwX11QvvYGRmYol3gbYYfuWuD+OhW+4uGFcxH4KpqRl85/Gn8drrJ7B5UycyGQ07b9qGkdEJXOy+jN/8tcO447Y9s3c2LG8Q9NV99kov/v6Z72AsE1/Ccdvrm/HxW+/BDZ2b1Bf12YFenLpyCbu7tqo+HO05g6nkoi9htQU0u8WwufQWw3zpyiEIFE/x2tnj+OartMWQRNA/jJbWcTTQFsPiYFyfH10NO/Cxnb+GKxMXcWH0BPauP4iIP4qnL/4rpii+ZpE3izwINC5aYh3oatyO5rp2TCRHlAeBlmzadgj4Q+iZOINnL35TbTnQQ2NqX8e9OLDhgxhPjeCNq8/i2nQ3MpSgykKya/EglJrRCv8uBMEZbmy1aoEgUBbF0f4pBCjjmm0PQhzmpQQoW1wkbC33vz8cQ6xjOwLBMOJjvUi0xJHeFra0xTBfcQEEsbZhA9Y2deH6eC9GE4OWyAEdpVNBig1hdXHT4pMbNKiioSY0htYgGmzEHRsfRF0wpmIOaGJ8ue9JXBg5VpgYzBMwm9ExOejDTIqCFAuf56d7Bba0rsMd227GZHIa9eEINrd1IRquQ1pL4+3ec3ir74y6oGfx0+CP4LPv+yju23N7yWRCtJj+w9e+i2Qqg4995D7cdusuFYBIE686mUZH0zRNnXT47uPPqP//5//t82ovv9AkQ8cm3+07j2+/+lNcmRlZIBqVb4014YN7DqjkQ+Q52NS6Dg2RmGrr9LVLeP70m6BrjBc/FKT4sX334GO331cyB0Iylcb3f/g8nn3uNdXM/lt34cDtN+PFV45icGgUv/v5T6lAv1KTJJ3IoOyQjx15FnEzu6QvG5s7cO+NtyCeTSmvwfrmtYgp/WRxtOc03uw5jbS29Hgg6efzDxzGXTfuK0ng8i8lMkWBl9/67k/Q2rIGj3z8AWzaaD1Ikbwb//6LZ/D8maPIIIOQ7zpaO6YRa1p6wog8ZRRnc2jn70A3sxic6UdDZI0aR6/2/RApLbe400NbDGQTRAhuWXef2logb1pjuAmXxs+oWBzaIouEYmiOtGNgpg8/6/63OYJAOqA4hRtab8H+de9XhOLU0BF0j51EMjtdMtW1EARnS1Yp27fTqngQ7KA1W7YWCAItlmNXpgG//WOOdBfDwlMMpV1/vkAQwVgrfP4AspkJpNaaSG6zFqS4WEXk/qUz1bR3avkCITrmqBloaI0i2hgquDdLkx3tm+5Zexdu3/AgBqb7cGXyAtbWb8TFsRMYmulXbuWsnlp2ctN1ExMDGqbjm2D4CkfTE1q0tdBYF0M8Qxdl6WohXdvUgoyWUdcTJ9LkpVi6/RIwfTiwZTd+86FH0RjNxWIsfigGgY4Cjo1P4Rvf/AFS6Qwe+sBd2L9vJ+obYkjP/kbn7elI4JE338VzL7yO1pYm/Jf//Fm1SBV66KKgnx57BU+deBXTBdIU1wXDaIo2IKNnQQtwA3mNmlpU3MbV8SFMp5MFYxPomOOtG27AZ+55GBvbO4uOSAqsfP3ou3jiB89hejqBX370Q2o7geRvb2vB5z79MNavK31Uku6Y+JefP4nXek4tualSkcVgBPV1UUV0aEtmTV296gudGLg+MYJEJl3QBiII4qHdd+KXD34YsbrS3jVN05BIpdHTcwXfe/I5NDc34iMfvAebN61DfSwXs1PqGZmawP/90b/g0gTF4GiI+HPHHOvql27XkI2TPX9q7x8qvZwbOY7WWIc6jUAnGig3AZEIzcgq+x9NXFO5C8iD0BrrRFusC03hZnU0koIZ6QkHIio+4cr0Rfz80uMLFv/8mNrUdKMiGURG6D1EFOLZScmDUEq5Dn53nSAcPnzY2sawBeFzXytszak3cgJgoQtLiiQCzTjV8mEMtu2FESg+Cfhgos0/hDtan8Xu7RcQazDtfLA7Ec9SHUM3MTWUAH3xqmueLT7Ojzn64Ju9qtf0G0ivD9nKg2BRvOWLmQB5TVq76hGuK3z8iyqTq3Rb8x7cs+UT6mjjcPyqOq6WVYmSTEynx3Hs+svL5kKgnYeZUQ0TE63Ighaqwvv5NHHSF7wKCIOpvsTUYkBEhsbMci5YE+iKteD3PvppbO/ctOQrlcba2Ngkjr97DleuDqrTCXTXBh2b27B+Le68/Wa1vfDSK2+rJEm0uF69PqwI00P334k7b9+rgv0WP7nLjkbw2C+ewZuXzxZMlLTgpIo5r0+zyZmWmwXIu9MebcJ/uu8TuH3H7qL3FpAcdLyRPAhvHT+jYibS6TRSqQweuP8ADtxxs8r7UOxRRyUH+vHPz38fvVNDBUNo8sGjpCCSm7w+ZAcqW4CxPC2lvmxqXIs/+vjn0NXaUXSuogDFq9cG8SYdMx0eR3dPPyLhsCIHHR1t+NCDd6OhvnhWSbp181j3GfzTz5/AlJ5SiZJikQG0dGoIRQrbHh1bfGTXb6mTBm9d/bmCqqtpOxojzaCMiRRXMJkaxaXxUxic6VME4fauh9RpBuo/5UnQAbN1zwAAIABJREFU9Fz+DDUfU2ZESqSVHMbJodeUJ4FO/Mx/Qv6IiiG6bf39oFMUZ0fewrGBF5SHbrlnoQchBFOzPk+Vmi+qvYaUks8rv4+Pj+PMmTNqzsg/vkcffZRtRc8TBBpUHA8pttrKJQ/CyRVOEEgviYmMus0xd5OjBe2QW5oyKfbkPAgx0GVNDnK+U6Kk9eGK3eZIPaOAbNMw0LaxKXe0c9nHp2IO1jdsRXtsA5rqmpW3go5zzWSmMJ4cRP/UBZU0qdBDC34mqWNsIICkvsXSSQYLyC8oUmcG8JG9d+OTB5amJSa9kveA3O0z8aSKkqeHyAeRgfWdua/r8919uHptGLqmKY/Bhg0d2LxxvcpIWGjHifa5j5w7gSeO/hxDiQkLO8j2ekW3OL5vxz585r6Hsaa+sag5Up9GxybQ13dNkYVwOIj16zuwedN6NNRHS84P8VQSPzn6Ep459TriixL62JO6QGkToC2TQ7fdh4/cdm/RvA6kK8pJcW1gWB05pXTgeV2FQyGV2KoQWZv/VkqS9I3nv4+3+s9B9xsIIBeg2NDqB50cKvTQ0cMdzTcja2q4Pt2DlBZHOBBDLFSvbJ1OINCpA9puoERGa+racXvXg+rorzruS5gV+OhTJ0MmL+Di+AmVP2FxnAGRb8o1sqN1ryIh7wy+jFSRhFvvEYQ0pk/xBCl6Yf0o28Yq2AARhFOnTrlHEKgvRA6EIHjLg0B6ocuaJgcT8FNeHCtxCPR1m9SRvpBEujuFel9Ipbe1RdhozgqZ8HUFoO0IVuQuBvWVrhuIxHLxB4WOOC4ec5SIKRgIgTLAqaRMJkWt08mCXNbGYg95Z9Q2w8w66H5Kt2uFfVkf9fSVumVNBz518EPYt+UmhArcepibv5fy/LyuKJ4gm8nlzSfiQLEJy+mRyvSPDOD7rz+Ht/vPu3JZE4naGq7H5+55GAdu2lcyvoJ6R8cDs1l9jvwUO32RR5fO9Z/qu4jvvfE8Lo1dg8GrmtxrTGBddA0+/8FfUscdgyVu2lzOw1pqXCXTKbx69hieePN5jGdoayCFuuAAmtuTqGsoluGU7hnJJcOibbpS115T2fpQE8gLoJnZovaf1TOzQbyFTxTR9kXYH1HzDQX7FvMuC0GwPie4VVIIggNka8GDQN2mbIrTI5TPXrd83bOWMDF5NomZ8xlEg1FE66LK/WrrCQGhjUDkRuvHHG21v7iwYYIW7abOGCJR+3dH2H23mtjiBsYHgkjrG2H4S+9F231HyPRj34YdOHzgQWzt3FAywZDd9vPlqS8j0xN49vgvVBBcwuKdFE7e5zNMdDW04TceOIybNmyxRBLsvIdI0eWhq/jRWy/h2OULSPusX8Jl5z1EEKgvt226Cb9yz0exgfm6Z6J96Uwap/sv4smjL+DS6HXoPgNBcwyNTUPqeGMgVEvXPYsHwZb9MRYWguAAzFohCOTSTExlkJxMwUdn30ut8+RBSBhIXEgieSGZu82RXNIlK84Dmd4RBPwb/cAOv/vXPc96D4KhgCIIlLe/Eg8RkulRHVMTzcj62l241dFEnT+EO7bswoduOYitHRsRCfHeHEn720OT43j51FH8/PTR3P0LFoLmnOKrvBmmD7s6t+Ljt9+Hm7q2IhahPBGlDLP4G6ndrK6hb+gafvbOEXUCIUUnF8pst9hb6Z0NgQju3LYHH9x3Nza1r1OEh6MvdGrh7JVLeObEazg72IesT4ffjKMuPIjm9iwi9Q62/ZwqzcV64kFwEVyLTQtBsAjU/GK1QhCoT5mUhpnRlIrwR6lgxdnbHCmLot4dR72fUi2HbHsQzCCgdYWR2l6B2xzpmmcDqG+JINpUeH/dgQlYqkL3MkwOA/FEK3QfbTUUvuPAUmOFCpmm2u++uWs77t21HzdvugHRSEQF+ZWzEFEQH32h9gxeVSl8X+8+jTgFnblIDua6ZwIhXwBbWzpx7037sX/7LrQ0NKkMi3b7pK4f1nXEUymcvdqNX5w9gXevdiNF8SMV6AttBcWCYUV4SD+7N25HfV2saDKo5WwhT3KmEnEc7zmD186fwMXhq+qKZx9SCPsGsaYthVhzwNLJB8c2V8GKQhAqCPYyrxKC4EAHtUQQyIuQnEwjOZWBqVIilMiKOO82x2gZtzlm10cqEqRoagZCkSAa2uoQDC+fpc+BGZSsks+sOD0WQCLZBt1Hxwe5SQIQ8gewrqFFJV26detObGlfj2ikTi1EeX3OP2EwfzHOnaHI7ZtTlkN1zHJ8BO/2XcCpK924PDGMFF0HXN5HfEmsFhQwAdJUe2wNbuzchP3bduLG9Vvn+kSnCZb0R6UHzl07TKdAKFaE9ugpWyJlGTx7vRdDM+NIm5qrnoMlHTVNhBBAV1Ob0s/+7TuxeW0X6kJ0pXMgd33yYmxn81Tk+mKAtkZmEglcHOjD25fO4tLwVYylpqFRoiIziZBvEI0tcTS0hCrmIbOnUGelhSA4w42zlhAEB2jWEkGg7tPxv+mRBLJpXU0wZpHFIH/ds9E9g4jpRyS4NFtbKUjJg6BviCJzYwwGJWpy6TGN3FG7hpYIIg3lu3ediEky0AVOU6M+pFKt0JQngXcrgOSir1X68m6NNqIttgbrWtqwvmUtGqJRtcBEQuQ9WYS1cr1nVd59csEPTYzj6tggRuNTGEtMIaln3Aniswgk9Sno86M50oCWaAM6qU+ta9FS36iu/KYFNt8ntZhkU6AU1vF0SpGca+MjGIvTyZNpZEytqF1bFMlxMepL2BdU+iH5u1rWKh01RhvUTgddZZ7fqiN9JNNJlVVyIj6Na2PDGJocw2hiCmOpmdx9CT4TPjOBEIbQ1JJEfUuwpsiB4qykU5VqWWIQHBtemRWFIDgAsNYIAn09phJZTI+k1InmYlsNKg9CTxx69wz8GRNF0vYvj2zQD/+mGLCnAaZLX/XqoIFuoK4pjPqWuqq6XZV7OGVgZtRAMtmIrNEGgyK51Xcy80Mf0eoL3I8AHW30kcfCmI1aX/Kpqu4xUK54usnC0KHR1yvxiEp6DEpBMOvioCRRQV8AQT8lyiJiOk/QWa8BLZy6YaqsfRoBodhTqRdU8PfZAEbyHFA/SD8U/5MTcVZQ0wTFf5AeaLuH+qLn+0DEAFkEzGmEQmNobM4i2hRc9khjBXvG/iohCOyQ2m5QCIJtyICaIwjquJOJ1HQGiYl0bp5abo82YwBDaeiDKZias3QZlJjJ3x6Bf0MdTBeiremrnY41hutCVdlaWM6kdM1EclpDYtKPtLYGulk/eyV0ACY3WZg75kjKnM2rXEiwORXSv1jMh+FgzLBVeS87z9Im1dnO2f6uiL4sg/li3alTyHTvQQYw0wgHJ1FXl0Ss2Y9wHXlSvMSA2DQtHgQ+KB23JATBAXS1SBAIBvqaTE5lkZqmNLLLkAT6gVz3s0ldHMCXq+L3wSwVFOmgcfIcqLiDuiDqW+sQcpLIycF7rVYh8kJbOqm4gUwqgGw2Ai0bgW4G1NW6uQQ0yudstUkpV4sIGHruZJGyBwPBQBahcArBEJ1SACJ1AfiDuWyctfqIB6H6mhWC4EAHtUoQciSBvnIzypugklvRXQ0rZBYy9dyJhXA0gPrmCIKRYsliHCieq8psQB3d26Bl6E/Og5NbC2YvUnK0d8MloLRTVQSUfehqG4Uydau/gnRluh9Bup5djcmqSliRlwtBqAjMRV8iBMGBDmqZIORJQjqeRXwypW5ApAt9KnEszIEqVJXcwprLbki3NdY1hhEK0Re50xYrV29Bxtp89HrlXi9v8igCZBdq50D9mRehsAJsmgtSIQhcSDpvRwiCA+xqnSCoRdcw1amGxGQa2YQOM0ABieqKoapGg89XlzrVZuayJBKJiTVHEKkPWssK6UDvUkUQEAQqh4AQhMphvdybhCA40MFqIAi5T3PKd28gE9eRmM55E9THTP7CrGp8zZC3YNZFT9sJ9JUVqQ+p0wrBsP0jlw7UL1UEAUGgAggIQagAyCVeIQTBgQ5WDUGYxYYGqqGZSCeyyCQ1RRToq53iFHNu0NwJ7mXuB3KA8Fz6nrm9VtP0KW8BvYg8GXQxTzDiR11DCIFw7WSPcwSWVBIEahABIQjVV6oQBAc6WG0EIQ+RIgq6CT1rqO0H+lsdKaS9czo9kFu/WR7KIKf2YQNEQvwqMIvYCF1hSxkRg5GA+ncVQMn1UhbJpRFBQBDgQEAIAgeK5bUhBMEBfquVILxHFGb3H+jyJnXXQS7ynpMgqLS55JJQ8ZGzkdtECOiffPCWA91JFUFAEFgZCAhBqL6ehCA40IF9gjCIO1ufxa5tFxFrNFfFESUHsEoVQUAQEATmEMgRBB1Dx5OYPhWCkS3fVUgex5VybNsLpuA6QVDu59k/XB3mUrL6SnXw2CUI7b7ruKPlaezcfgn1TavjDLMDWKWKICAICAILCEJqSsPQyRRm3hWCUA3TKEgQDh8+7GzlLNADp4vwcmBwkQPlJHdIXOwQBHpPo28C+xtexL7tx7CmVa/Z1KjVMGB5pyAgCNQmAhTvND2YwfAxDcleP8y5CynK669XPQhcayVn/4ggnDlzBtlsdg5036FDh9gIQnmqXFp7JRKEEDRsj5zE/o4X0NkxhkjdMtsMpgm6pyCgsu6W705bDnvKKUSnEih2QPY7uC1U2hMEOBF4byp2b0bglLf8tujyMFOHyr8y0ZPBxCk/9ClfLiEaw8O5gDKIs8BjwtEeZ/8mJiaEINhVil0PAt2Q2OCbxubwOWxqOIuW+mH4fZT5b/6QNxHwpeEP+BCLpVHfZCAU4d2OoAGWTRuYmQwikYyouxd0k24VXC1Tj11N13Z5Lq0zzdvvfaHUNuyWekeLJB3r9ZlZhIwEgmamwCjlRt6SaK4Xor4bGpAeMZEc8CEz5nd8MVwhYTkXUE4wvOhBEILggJbaJQhkREQSIr4MGn3jiPpnEMhfRfsef0TQR/nXNXTU9WJ7+0ms7UwgEuWZxqmb6aSBkaEYLg7fiuH0VhimH5q6RZDnHZyDRdpyFwGlcab1xWQ2nyVDw10ovNe6L3ciiO5jCCbH0TFzBp2ZXgSRXiqrQdd1196j+p/2waA/dMeKg3l6OVSEIFi3FyEIDgzPCUHIq4SIwrKGO0skmvxT2BN7GTd2HsPa9VmEI+XPwEQORofCOD14D07PHEDcbJx9m3VjkZKCgCBQSQRMhDNxrJ84ie1TR9CoD6sPjfmP0ziqSvbC0bvmdZO7j0IQrGtECEKFCYIV1fhhosk/jV11v8DOzqNY25VGpM45ScikTAwOxHB24C6cTdyFabOBHJhWRJEygoAgUEUEAkYWa6Z6sGf0ebRl++FD7lKy/MO9eFaxq8u+mruPQhCsa1kIggcJAqnPT6cf/FPYTSRh/VGs7UgjHLUXk0BdI3IwMhTC6ev34FzybkwZQg6sDw8pKQhUGQFDQ+NUH/aOPoeObJ8QBAZ1CEGwDqIQBI8ShDxJoO2G3fWvYHvbKaxtn0EkZqj74Ys+s1kNUwkfRkfrcXHkVpyJ34Mpo1E8B9bHhpQUBKqOgM/Q0DzVqzwI7UIQWPQhBME6jEIQPEwQSI2057jGP4XN4dPY0ngazQ0jCAayxQOTTBO6EcB4vBOXp/aiN70X02ZMyIH1cSElBQFPICAEwXm+muUUKATBumkLQfA4QciThAhSaApMIuZPAuqIZLHHhAE/UnoME0YLsmakJiOdrZu5lBQEViYCQhCEINi1XE4CJARhBRAEuwYi5QUBQaA2EBCCIATBriULQVDX+ZX/OI2OLeeYY/lSSwuCgCCwWhAQgiAEwa6tcxKE6elp9PT0QNO0OTEk1XIJjQhBsGuyUl4QEAScICAEQQiCXbvhJAi6riORSCxIVCUEQQiCXZuU8oKAIOACAkIQhCDYNStOgkDvXpzFUgiCEAS7NinlBQFBwAUEhCAIQbBrVtwEYfH7hSAIQbBrk1JeEBAEXEBACIIQBLtmJQRBghTt2oyUFwQEgRWIgBAEIQh2zVYIghAEuzYj5QUBQWAFIiAEgZcguL14lmNiXDdWut1H2WKQLYZy7FzqCgKCABMC7xGE59CevbzkLgbDKJU0jUmQKjZDCyfXose1CLsBB5dsXFgt10ffI4884ukrxjkBcKKUZLAFp1o+jMG2vTACdW7YirQpCAgCggDyBGH3yM/QRncxmEsJgZM5rBC0nPMqp+rycnHI5zT3DWd/3G6Ls4+E+WLcPU8Q3Aa4VPuUB+FU60eEIJQCSn4XBASBshDIE4RdRBAyvQUJQlkvmFeZYwHmkmV+O4UWKafv4Vw8ncrgdj3OPgpBcKAtIQgOQJMqgoAgYBuBBQQh3btki8F2g0UqrAaCQN2v9W0ZIQico8JBW0IQHIAmVQQBQcA2AkIQoFzcnORFCIJ1MxQPgnWs5krmCcJQ617oQYlBcAChVBEEBAELCOQIQg/UFkO6TzwIFjArVUQIQimE3vtdCIJ1rOZKpgJNOL/mAVxr249sqJ4oroNWpIogIAgIAsUR8OtptE2cx86xF9GcuSIEgcFghCBYB1EIgnWs5kpqvgiuxvaip+Ug4g3rYPiDAIQkOIBSqggCgkBBBEz4TRPh1Dg2jb2FLTNvI6pPUmZ81/DidONzCilbDPbQlBgEe3ixlzbhQyLQiquxPRiLbkMq1AAjGERASAI71tKgILDaEDBNCqTTENFTaExcxabESazRBuA337ty1w1MhCC4gWrl2xSCUHnMl7zRhB+avw7xQBvigTXw+yiZh3vs3nmXfay0xXTxC8Z5H5lqKvWZoAma61GTLpNziVOTntTjLP5c2K/cdnzQEEBUj6NBG0bITMBv6q53RwiC6xBX5AVCECoCs7WXmD4/TPIdMC0C1t5qvZRan5Rw5QvIaXjWe1DZktx99Pt5sCcU+FytJgyDkQWxqYiXnLGJVYWGyEvpgwG/SoxUGV0JQaiCol14JeccJjEITApaLYOL0/iYoGdthrN/fAs6JznIwcXZT04FcGUF5JRptbS1WuYwCVK0btFCEKxjVbTkahlcXl1YmNTIunAKQbCvFSEI9jHjqrFa5jAhCNYtRgiCdayEIHj4y5NJjUIQuIB02I4QBIfAMVQTgsAAogea4PyIE4LApNDVMrg4jY8JetZmOPsnHgT7qhGCYB8zrhqrZQ4TD4J1ixGCYB0r8SCIB8GWtQhBsAWXKiwEwT5mXDWEIHAhWd123P7IkdscHeh3tQwuTuNzALPrVTj7JwTBvrqEINjHjKvGapnDxINg3WLEg2AdK/EgiAfBlrUIQbAFl3gQ7MPFWkMIAiucVWvM7Y8c8SA4UO1qGVycxucAZtercPZPCIJ9dYkHwT5mXDVWyxwmHgTrFlPQg3Do0KHKZOawLqeUdIgA5yLFtUfs5UVgtRCEWp8kHQ4XqeZBBGQOs6cUt+cw36OPPioEwZ5OQBMu58LHxea5B5dNWJYtnjdiTsy4ZPNqO1w2wUX0uHHK2ypnP7llrOX2OOcwTh3KHOYtqxOC4EAftNBxDTDOAcHZlgNYhCBwglbjbZGt+v3+Gu+ld7vHOYdx6lHmMG/ZjBAEB/rgHFycA4KzLQewCEHgBK3G2xKCUF0Fc85hQhCqq0s33y4EwQG6nIOLc1HnbMsBLEIQOEGr8baEIFRXwZxzmBCE6urSzbcLQXCALufg4lzUOdtyAIsQBE7QarwtIQjVVTDnHCYEobq6dPPtQhAcoMs5uDgXdc62HMAiBIETtBpvSwhCdRXMOYcJQaiuLt18uxAEB+hyDi7ORZ2zLQewCEHgBK3G2xKCUF0Fc85hQhCqq0s33y4EwQG6nIOLc1HnbMsBLEIQOEGr8baEIFRXwZxzmBCE6urSzbcLQXCALufg4lzUOdtyAIsQBE7QarwtIQjVVTDnHCYEobq6dPPtQhAcoMs5uDgXdc62HMAiBIETtBpvSwhCdRXMOYcJQaiuLt18uxAEB+hyDi7ORZ2zLQewCEHgBK3G2xKCUF0Fc85hQhCqq0s33y4EwQG6nIOLc1HnbMsBLEIQOEGr8baEIFRXwZxzWKUIgpLZNIAqXA7AeedBdTWfe7vPR39KZzIVguBAW5yDi3NR52zLASxCEDhBq/G2hCBUV8Gcc1ilCEJWy8II6ahvjSIYCFYUQJNYSRWICXcndV3HxNgEMONHXV0UNA6LPUIQHGiAc3BxLuqcbTmARQgCJ2g13pYQhOoqmHMOqxhB0LPo3N+K3R+6EXXROvhLLG7VRdgbbzfnkRoiB1euXMXbL78N40wI9ZEGIQhuqIlzcHEu6pxtceImtzlyolkbbQlBqK4eOeewShEEzdCw5e4u7PzYdlyP9mEaU9UF0eNvN3VAnzABIyeoltZw/heXMHhmBJ3Dm9AUXSMEwQ0dcg4uzkWdsy1O3IQgcKJZG20JQaiuHjnnsEoShK13b8DuT+7Aq+Hn0Gd2VxdEj7/dl/Uh2w8YWs6NYKQMjL44A/9gCBsntqMpJgTBFRVyDi7ORZ2zLU7ghCBwolkbbQlBqK4eOeewyhOEG/BS+Gn0mOerC6LH364IwmUfjGyOIJhpA+MvJBEcjghBcFN3nIOLc1HnbIsTPyEInGjWRltCEKqrR845rOoEQSf/uQ++Gggi5LQKUzOQHfDDzOZaNdIGJl4UgsCJccG2DMMA17EXzkWdsy1OEIUgcKJZG20JQaiuHrnmMO45Z7n2aA7RTQ1b796I3Z+c50GgwwXTPugjPtAJSHnmI2BCSxpIzKRgGCZ8GR/SbxuIjNdZ9yAcPny45nkXGRf3w9VmqWMmTuR2o00ncuTrcGFVjgzL1fWybFz95bQHTrw4vzy5sPJqO5y4c49LTvvKy7a4zTxB2HZw01KCMOmDNgxQUJ48CxGIT6bQ3z0KLWsgrPvROFiP+niDdYJw6NAh9tXTDWPmUDyXXNysmUsuDoyWG6CcbXupLS9iz40P5wROX54cD/cY4pBpwbeXCx8VHDJy2Ssn/lwylcJHN3Vsf58QhFI4zf99ZiKBvvM5ghAy/GgZaUB9vLF6BKFSxmIHJCrLKRfn4OKWzS4uxcpzLiyccnG2xWkXnHJxtsWpx9VAELxqE5xycc5hnHIVs3shCPZnBSEIFjHjNGLOwSUEwaICXSrGaRcuiVh2s0IQ7EHoVZvglItzDuOUSwiCPVstVVoIQimEZn/nNGLOwSUEwaICXSrGaRcuiVh2s0IQ7EHoVZvglItzDuOUyysEwQcfAr7ggmyNtBdvmDrIk7FSHiEIFjXFacScg0sIgkUFulSM0y5cErHsZoUg2IPQqzbBKRfnHMYpl1cIQmu4Dbe13onWSPvcpUaakcWlqfM4PXUSGSNjz6iqVFoIgkXgOY2Yc3AJQbCoQJeKcdqFSyKW3awQBHsQetUmOOXinMM45fIKQdjVuBd/vPcL2N16C4K+3MVQcS2OH/Y+hm9c/EdMaSsjzbMQBItjn9OIOQeXEASLCnSpGKdduCRi2c0KQbAHoVdtglMuzjmMUy6vEIQ9TbfgC7d+EXvb9qutBkUQsnE80fMtfPX8VzCVnbBnVFUqLQTBIvCcRsw5uIQgWFSgS8U47cIlEctuVgiCPQi9ahOccnHOYZxyCUGwZ6ulSgtBKIXQ7O+cRsw5uIQgWFSgS8U47cIlEctuVgiCPQi9ahOccnHOYZxyrQSC8LXzX8GkeBDsDap86UoZi13pOOXiHFxCEOxqkrc8p13wSsbXmhAEe1h61SY45eKcwzjl8jJBSGgJ/Lj3cXy7+58xo8/MiZo1NMxoU9BMzZ6hVaC0eBAsgsxpxJyDSwiCRQW6VIzTLlwSsexmhSDYg9CrNsEpF+ccximXlwkCnWI4N3Eap8ZOIGvM3oAEYDB5HT+98iRGMiMwwZ6Y2J7xLiotBMEifJxGzDm4hCBYVKBLxTjtwiURy25WCII9CL1qE5xycc5hnHJ5mSAAJjSD8iBoC2jA+fFT+B9v/zl64t3QwZOK3J7FLl9aCIJFJDmNmHNwCUGwqECXinHahUsilt2sEAR7EHrVJjjl4pzDOOXyNkEoLN3Z8XfxxaN/gkszF4QglBpqlTKWUnIs/p1TLs7BJQTBriZ5y3PaBa9kfK0JQbCHpVdtglMuzjmMUy4hCPZstVRp8SCUQmj2d04j5hxcQhAsKtClYpx24ZKIZTcrBMEehF61CU65OOcwTrlWJkE4iS8d/VP0xC9Cx2waZpM2JHL/VPMRgmARfU4j5hxcQhAsKtClYpx24ZKIZTcrBMEehF61CU65OOcwTrlWIkG4NHkeXz7117iauDpHCAxDw2hmBFPZKRh50mDPDFlKC0GwCCOnEXMOLiEIFhXoUjFOu3BJxLKbFYJgD0Kv2gSnXJxzGKdcK5EgTGcmcHLsBJJaco4gJLJxPHvtx3hj5DWkjZQ9A2Qs7TmCwNg31qa4jZhz0mXtqDRmCwFOu1gNNiF42TIv1sKc2JNgK8leqe90i+L2923C7k/egJfCT6PHPE9+fJiTPmjDAOcli4VSLS+nzJxsC082TKbH8fWzX8YP+h9HXI+z2oGdxuwShMU24Tt06BDrJgknM7UDRCXLGoYBrsGax8trg5X6x9XHSurG7ru4+uhVPRIeZK/yWEdA5jDrWOWJht/vt1fJZun8Irz17o2eIwiFujKZHsNXz/wtnrz8GGZWCEEoNIexEoTVMLDIGMhYuUgCDSy3B5fNsThXfDWQBE6CIHp0amneqSdzmH1dBAKBingjNEPD1rs3CEGwoSI7HgSy/cVzmBAEG2DniwpBcACaR6sIQfCoYqoklhAE+8ALQViKGW0x/NOZv5vdYkjMFsidaqCtkko9QhAqhfS89whBqALoLr1SCIJLwK7QZoUg2FecEISlmM1kp/Hj3u/hyNDLyJhpVYDmmonMBC7OnEfWyNgH2kENIQgOQCu3ihCEchH0Tn0hCN7RhRckEYJgXwtCEJZiRhc3DSauYTwTLltHAAAUM0lEQVQ1BnM2/bJhGjg9fgL/eO4rmMiO2QfaQQ0hCA5AK7eKEIRyEfROfSEI3tGFFyQRgmBfC0IQCmNGhGB+oiT67zeGXsFfvf1nGE4P2QfaQQ0hCA5AK7eKEIRyEfROfSEI3tGFFyQRgmBfC0IQrGFGBOH1wVfwpbf/FMPpQWuVyiwlBKFMAJ1UF4LgBDVv1hGC4E29VEsqJwTBa0eUF2NHNr5YRs45jIMgWBmHK+kUQyH7FYLg81XkuEu1Jo/8ezkHlxxzrK42rUxMViQsdETISr1KlFkNx1W5cLRLEGj8Njc3o66uznPHlUnvmUwGU1NTiMViCIVCczDl5zAO3AgDpySJ5IjH40gmkyXzrtQCQXhz6FX8j2P/HSPp4XnQm8iaGgwXTjeIB4HDwm22IQTBJmAeLi4EwcPKqYJodglCOBzG/v371QJMX9JeejRNQ3d3NwYGBrBr164FJIaTNNrFbD5GRA5Ixunp6QUEphCOK50gEObdk2fxRO93Edfey66Y1hM4MXYMQ+kB9iOQQhCqMCKFIFQBdJdeKQTBJWBXaLN2FzvyHNx7773qK5gWOlqUvfJks1lcuHABDQ0NuP/++zE+Pq7+cJKDfF+deBBIjpmZGVy7dg319fVobGws6olY6QSBsEppSYylRxd4C8ZSI/j7M/8Hb4+9iYyROxLJ9QhB4ELSRjtCEGyA5fGiQhA8rqAKi+eEINx3332YmJjAiy++iHSad4Ivp/u6rmNwcBAbN27EQw89hN7eXly+fJktC+x82ZwShFQqpbwHa9euRVNTU80TBMJs8RXQw8lB/K9jf4HXhl9CWghCOSbvjbpCELyhBw4phCBwoFg7bZRDEF544QXQgueVhwjC0NAQNm3aNEcQiCTk7+bgtH2nfSa8yIuwmgjCYqzyBOEXwy8KQXBqSF6qJwTBS9ooTxbOSVLuYihPF16oLQTBvhaceA/ybxGCAAhBsG9znq4hBMHT6rElnBAEW3DVfGEhCPZVLATBOmZ01HFxmuXh1BD++vhf4cjIKxKDYB1K75YUguBd3diVTAiCXcRqu7wQBPv6FYJgDTOaa64lruDIwItI6+9tRU1nZ/Cza0+hJ94N3eQNcpUgRWu6YS0lBIEVzqo2JgShqvB77uVCEOyrRAiCNczIe/D28Ov4mxN/hbHs6Fwl3TQwrc0gyxygSC8QgmBNN6ylhCCwwlnVxoQgVBV+z71cCIJ9lQhBsIZZPpPiX6pUy+/dxbD4VIO11qyV8hRBIJHtDjBr3fRWKYoC5jpL7NVMilz985bmlkqzGghCPmrd67rwinx2gk0pD0L+mKOcYrCvwdUUpLjqUy3nzaMcRmnfxCpfg3Px9DKh4lo8K68h62/k7KOdhcW6hOWV5OwfScLZnpfnCauyEUF4//vfr/IglEsQiqUsznst7VhDuccci6UPz8+B9LdVrArJnicI7e3tRfMg0Ht0U8e2gxux+5M34KXw0+gxz1NSAZiTPmjDAGem4j1Nt+ALt34Re9v2I+AL2oF92bI5gvAyvvT2Fzx5WRMJvngO8z3yyCMmS+/nNVKOwXDLIu15AwHOhcUbPSoshddsnxt3zva8htV8jVqVjQgCZSkslyAEg0HQIlkomyBhPjk5ibGxMVuZGksRhGLjiPpPGRjpnolCxJcyRo6MjJSdGCpPENra2komSlpJBIF0RlkRKftjfoGluxbeGn4N//P4X2AkM/8uBvdmNDtbDIU+8F0hCO5113nLVge88zdIzWIIcC4sgnT1EODUYy2MSSIIH/jAB8oiCLQAR6NRdV/CunXrlizItEXU39+vUjnnLzWyogenBIH0QoSls7MTmzdvVv+++KGMkefOnVNZEPNbrk6sslYJQlKL4+Vrz+Pk+HFkjIyChmINBhMDeH3kVaSMpBO4bNdxQhAWEGU3PAi2e1GBCrUwGVUAJtdeYWVCc+3l0jAbApx6rIUxaZUgUF/pNkX6mzCkexLo7/xCTHcRdHV1qS/2xbjQAkzeA7p0iTwJo6OjoMW/1OOEINC7SZY1a9YoWejLvtAlVORBoDsUKAsi3RaZzyBJZYnwqC0BXZ/L2ricrLVKECbT4/j62S/jh/3fQ1x/72ImQ22VkFeB3XFfEGIhCKVGyezvtTAZWeyqJ4txLiye7OAqEYpTj7UwJq0SBCIH5CGgBZcWVPr6TiQS6obFAwcOKPd6fiGmhTWPM2FE/5/+mxbl4eFhvPPOO5Zc+04IAi3u69evx5YtW+YIDRGUfKBrPi6B/qb2qQ+UvpkIDNUlkkNbJfT/r169qi6xKmYztUsQxvDVM3+LJy8/hpl5BKHS04QQBIuI18JkZLGrnizGubB4soOrRChOPdbCmLRKEPLXQtPiS/EKx44dU9sF9LV+xx13KIJA2NJvtLDmv8hp64Hc/BQPQL/T5UvHjx9XBKGULpwQBCIjGzZswNatWxUxoTauX7+uthLoIRJA9ya0tLQoTwf1oa+vT3k1iEQQsSCSQJ6FS5cuKTIkBOE9D0KlpwkhCBYRr4XJyGJXPVms1GTmSaFFqCUIcOqxFsakHYJw2223qa/zPEGguvTftKASgSAPAW0j0BXNtMDSQ8Rgz549c65+qku/01YDfaUX04ddgkCEgLYWiABQLAQ9REQo9oGuiSYCQGXo8ieSm7wi9A6SiQIWqQzdHEm/rTaCsFgPE+kxfO3M3+HJ/scWbDFUekoRgmAR8VqYjCx21ZPFOBcWT3ZwlQjFqcdaGJNOCcKJEyfQ0dGBHTt2zJED+lKnP7TYZjK5wLZIJKIWbPqqp7/poa/ynp4eFQNQLBbBLkGgvtx4443qJAUt/uQ1oC0N8g7kgyPJg0DeDopPICJA8hFxIJnJk0D/b7URBApCHEsOQ1OxBblnOjOJ73Z/A89cfwpJPVG12UEIgkXoa2EysthVTxbjXFg82cFVIhSnHmthTDohCLTwnj9/XnkF6GucAhVpS+H06dNq0SdPwvwYBPqdXPe0eNOCTOSBYhho75+TIMRiMezduxf0N72fvBn0DnrffL2T3mjrY/fu3YpM0EPeA5KdSAzFIFAfV8sWQ/9ML7514esYSg3AmKUImq6hb6Yb11JXVf6Gaj1CECwiXwuTkcWuerIY58LiyQ6uEqE49VgLY9IJQaAvbiIE9JVOf+ghl/yZM2eUB2Fx5kty6y8mCEQw6IudkyDQop8nCNQuxTsQQaATF4sfIio7d+5UngSSj0gNlSMyQ39oC2S1EISz4yfxl0e/gJ74Begw5qCixEiVOq2w3PQjBMHixFwLk5HFrnqyGOfC4skOrhKhOPVYC2PSCUFY3G/6QqeTCbQg548/zjcncuvTVznlJaDFlxZjKktu/WJptO1uMVAcBG1l0OKfD5ik7QV63+KH+kCBikRcKG5hfp+o7uoiCO/ii0f/BJdmFhIEL0wJQhAsaqEWJiOLXfVkMc6FxZMdXCVCceqxFsYkB0GgQMCjR48WXfCJJMzPR2Alx4BdgpA/Upk35Xwug+VMmwIot2/fjtbWViEIQhBW9gxYC5PRStYA58KyknFY6bJz6rEWxiQHQSAPAh1dpFwCeXzJM1DIm2DHfuwShGJt58nD/LTLFKtAxyEXJ3eqZQ8CbRvQP/Ofc+OnCm4x2NGVW2XFg2AR2VqYjCx21ZPFOBcWT3ZwlQjFqcdaGJMcBIEWcnLl53MfEMZ0aoCOF+ZPMzgxL06CQLESFFRJ2wl5kkDbHRSkSFsTq2GLge5SGE4OYTB5Hbr5Hkm4PN2Nr537Cq4mr8BcRB6c6I2zjhAEi2jWwmRksaueLMa5sHiyg6tEKE491sKY5CAIZDqE63xs6SjjkSNHFFFw+nASBIpLoHiDxXdFFNJhrXoQ0loSz139KX7Y9+9IzDu6mNQSuJzsQ1pPOVWVa/WEIFiEthYmI4td9WQxzoXFkx1cJUJx6rEWxqRVgkBf4DfffLPKfWCl33RMMJ9t0alpcROEfC6GUteak43QqQw6ZUF/F7OZlZRqOZGN43s938LXzn8FU9nJObVU+6RCMfsQgmBx9FgZlBabkmIOEOBcWBy8XqowIcCpx1oYk1YJAvWVSEKpxTWvJsJ5cf4BuyrkJAj5GIRCFzcVkovkp9MPxU5ZUL2VRBDi2Tie6PkWvqoIwoRddVSlvBAEi7DXwmRksaueLMa5sHiyg6tEKE491sKYtEoQqmEenATBLfmFILiFbK7dsgnCoUOHKnPvpLs4WGrdaxMS52Q7HwAv9TPfR86+cvWPUyZLBiiFFiDApcdqwkoE4f7771f3EbzwwgtzgYbVlCn/7pVMEBbbhjpyaerYdnAjdn/yBrwUfho95nlQ4kJz0gdtGOBMWLir8Wb8171/ht2t+xD0BRWkcS2OH/Y+hm9c/CqmtSkvqLikDGUThEcffXTVEISSaFahwOLgpHJEyA8qr0285Gbk6if1zaqb1gqWXHLRu7yGu5X+2y3D3Ufu9uz2p9zyRBDuu+8+IQgOgVzsQciP7cIEQcPWuytDEJpDLbil5Ta0RNrgg0/1TjOy6J25hHPTp5E1lmaXdAiBq9XsEoTFuPuEILiqH0uNl9qns9TI7ALlxQmXFuE8SbDal+XK0QTCRRDy5IDLk+BF7MvFe3F9Luy55apWe0IQykO+EEFYbhxpBhGEDRXxIBAp8PsCc+Qg10s6xGiAciGslEcIwkrRVBE5hSBYV6IQBOtYuVFSCMJCVIUglGdlXiUI5fXKO7WFIHhHF44lEYJgHTohCNaxcqOkEAQhCJx2JQSBE82lbQlBcBffirQuBME6zEIQrGPlRkkhCEIQOO1KCAInmkIQ3EWzSq0LQbAOvBAE61i5UVIIghAETrtyRBA+cQNeDD2NPuMCpaCEMQ1owz6soNAATgiLtiUehIpB7d6LhCBYx1YIgnWs3CgpBEEIAqddOSIIH7sBz888jd70RXXM0Ugb0BIGvJzRkBMzy22ZQGIqjb5LYzCyBkKGHy0jDaiPN2LjxHY0xRZe003tyikGy+hWrqAQBOtYC0GwjpUbJYUgCEHgtCunBOG5kadwaaabHAiYGktg6OoEDF1O7C/WjaYDRkaHYZpCEDgNt5JtCUGwjrYQBOtYuVFSCEJhgjA+Pq4SJaXTaTdgd9Tm4kRJPT096n4ErvnGkVDzKtHxYsKL7mugmyKbmprUEeaSxxw/dgPeIwgmxodmcK13HLomBKGYTsSDUK7FVqk+14ClgeXFs/iSB6FKhuXCa4UgLCUId911F3p7e/HGG2+UdT0zt7qIINDiu3HjRhw8eBAXL17EtWvXPEMQqL90XwORBDsEYedHt+O5oZ+iJ04eBBMTQ3EM9E1AFw9CURMKGj40jzaiPt4gWwzcg83N9oQgWEdXPAjWsXKjpBCEhagGg0F1BfI777yD69eve2rxJUlJX2vXrlUk4fLly4jH40VvV3TDZkq1SRdAtba2oqGhoYQHIYsNd65D++1r8NLFn2Nw+rrqSyquYWYiCVOiFItC7TP9iGYjqJupx8bxbWiKSgxCKdv0xO9CEKyrQQiCdazcKCkEYSmq5LWjuxjoi91rD8kWDofVH9rv55prFveznGykZFOUcIrIVjEvaEbLILLZj2TbDLovdyOdmd3OofsYDNleKGl7lKY+5ENUj6JzeDMa65qWBiX6cmml84+kWi6JqvsFuAatbDHY05WkWraHV/6L1H6t2q9RzgJZCXRobnBTxnLvNJl/j8xy26TZbAZJPYE00shqWXXEsVIP56vUErxwHXbcDdty+YCgP4CY2YBoXUwIgmPkK1hRCIJ1sMWDYB0rN0qKB8ENVFd2m+WSgwVfrEXiqLgJvR3U83FUduosV5bzwjmnt+Uu9zEpxxw5NMzchhAE64AKQbCOlRslhSC4gerKbrNSBKGaKK3WQGvZYqim1c2+WwiCdSUIQbCOlRslhSC4gerKblMIgj39raQ5TAiCPd26UloIgnVYV9Lgst6rlVNSCMLK0VWlJBWCYA/plTSHCUGwp1tXSgtBsA7rShpc1nu1ckoKQVg5uqqUpEIQ7CG9kuYwIQj2dMteWgaXPUhX0uCy17OVUVoIwsrQUyWlXA1zGH3EcfVzJc1hvsOHD1furEglrXbRu7gzDHIeGeJqi7uPXOriGlh5ebgWKW65vIw/ly69epSWq39ebofbvrjmHa52CHvuPnLpk3Ou4BxDnHIVwt936NChVUMQuIyPWylcRuzFdjgnj/n9K1eXbsnFoYNy+7ZYBk575SJnHDiVasPLOi4le6HfObG3axPcNumk/9Wq45YdlYupW3ItmGfzBKESL6uWgum9xS4BsSuX3cFlt/1yyte6HsvBZqXULXfiWK0EYb7t079ns1lPZjd0aofVIgj03lAoBEqJXIlH5rBKoGztHXMehFpXihAEawYhpaqPgBAEZzqYP4cROaAbFunuAa4gYGdS8dWqlmuayEH+rgRu2yyETq2vRXwW4X5LQhAcYCweBAegSRXLCHBPwpz2yvkVaxkQiwXnLyx070B/fz/GxsZqhiAQDNy2YQXaSCSCTZs2qRsXK6F/IQhWtFKZMkIQHODMOeE6eH3RKjK4uBGtfHvciwCnvVZigXCK+GKCQFcwj4yM1AxB4LYLqzjTRUpbtmxRt0JWQv8yh1nVjPvlhCA4wJhzwnXweiEI3KB5rD3uhYDTXiuxQDhVhxAEp8gVrycEwR1cV0KrQhAcaIlzwnXweiEI3KB5rD0hCM4UIgTBGW6laglBKIVQ7f4uBMGBboUgOABNqlhGQAiCZagWFBSC4Ay3UrWEIJRCqHZ/F4LgQLdCEByAJlUsIyAEwTJUQhCcQWWrlhAEW3DVVGEhCA7UKQTBAWhSxTICQhAsQ1WUIPT19WF0dFSCFJ3BOVeLTjFQkGJ7e7sEKZaJ5Uqr/v8B76WPzzr4QLIAAAAASUVORK5CYII=;" vertex="1" parent="1">
                    <mxGeometry x="80" y="170" width="520" height="267" as="geometry"/>
                </mxCell>
                <mxCell id="3" value="" style="whiteSpace=wrap;html=1;fillColor=none;strokeColor=#FF0000;strokeWidth=3;" vertex="1" parent="1">
                    <mxGeometry x="490" y="340" width="110" height="90" as="geometry"/>
                </mxCell>
            </root>
        </mxGraphModel>
    </diagram>
</mxfile>